<svg width="59" height="80" viewBox="0 0 59 80" fill="none" xmlns="http://www.w3.org/2000/svg">
<g clip-path="url(#clip0_1_8)">
<mask id="mask0_1_8" style="mask-type:luminance" maskUnits="userSpaceOnUse" x="2" y="13" width="54" height="54">
<path d="M39.1175 13.1478L14.335 15.3159C7.05468 15.9529 1.66918 22.3711 2.30612 29.6514L4.47431 54.4339C5.11126 61.7142 11.5294 67.0997 18.8097 66.4628L43.5923 64.2946C50.8726 63.6576 56.2581 57.2395 55.6211 49.9592L53.453 25.1766C52.816 17.8963 46.3978 12.5108 39.1175 13.1478Z" fill="white"/>
</mask>
<g mask="url(#mask0_1_8)">
<path d="M39.1175 13.1478L14.335 15.3159C7.05468 15.9529 1.66918 22.3711 2.30612 29.6514L4.47431 54.4339C5.11126 61.7142 11.5294 67.0997 18.8097 66.4628L43.5923 64.2946C50.8726 63.6576 56.2581 57.2395 55.6211 49.9592L53.453 25.1766C52.816 17.8963 46.3978 12.5108 39.1175 13.1478Z" fill="#F7841F"/>
<path d="M9.80544 27.3148C8.30701 32.0507 2.44569 33.9508 -0.297669 34.3089L-1.97379 15.1508L54.346 9.07227C54.8245 13.1924 55.9373 24.0226 56.5603 34.382C43.6022 33.0362 41.5975 28.3411 38.982 24.7621C23.6148 27.2578 22.5999 22.7418 19.7822 19.8889C17.5599 22.8285 12.0442 26.5876 9.80544 27.3148Z" fill="#4A3E3E"/>
<path d="M22.5812 18.6126C22.5811 18.6923 22.5807 18.7685 22.5821 18.825C22.4182 18.9155 22.2507 18.9851 22.1131 19.0928C21.9226 19.2423 21.7365 19.3825 21.5028 19.465C21.288 19.5404 21.2542 19.6603 21.3794 19.8565C21.4842 20.0209 21.5959 20.1847 21.7269 20.3256C22.4616 21.1115 23.2512 21.8376 24.1037 22.4927C24.4057 22.7248 24.7552 22.8944 25.0714 23.1076C25.4628 23.3709 25.915 23.5191 26.3042 23.7967C26.5271 23.9561 26.8226 24.0135 27.0863 24.1126C27.5993 24.3086 28.0995 24.5801 28.6301 24.6736C29.1752 24.7694 29.6934 25.0251 30.2641 24.9681C30.6345 25.1128 31.0491 24.9933 31.4159 25.1578C31.8666 25.0457 32.3235 25.2077 32.7739 25.1328C32.8891 25.1139 33.0269 24.9885 33.1027 25.0244C33.2282 25.0825 33.3383 25.0852 33.4615 25.0762C33.6056 25.0636 33.762 25.0092 33.8895 25.0494C34.0425 25.098 34.0985 24.8877 34.2595 24.9674C34.3353 25.0033 34.4703 24.9065 34.5799 24.8845C34.7158 24.8585 34.8596 24.8831 34.9673 24.7568C34.9979 24.7222 35.0908 24.7318 35.1533 24.7369C35.4583 24.7616 35.7276 24.6212 36.0147 24.5624C36.2949 24.506 36.581 24.4562 36.8294 24.2998C36.8411 24.2917 36.8607 24.2936 36.8769 24.2957C37.0131 24.3139 37.1421 24.23 37.2945 24.3123C37.3503 24.3428 37.4977 24.1847 37.614 24.1373C37.7253 24.0939 37.8513 24.1378 37.96 24.0238C38.0461 23.9348 38.2451 24.0432 38.3392 23.8844C38.3469 23.8713 38.4449 23.9176 38.502 23.9233C38.5555 23.9274 38.6512 23.9279 38.6581 23.9061C38.7511 23.6323 39.0837 23.8104 39.2131 23.6096C39.2194 23.6002 39.2963 23.6288 39.3336 23.6504C39.4434 23.7116 39.5285 23.6918 39.6294 23.6103C39.889 23.3999 40.2397 23.3798 40.5183 23.2031C40.6612 23.2987 40.786 23.1656 40.9177 23.1735C41.0851 23.1837 41.2 23.0603 41.3485 23.0366C41.4219 23.0249 41.5168 23.0166 41.5746 23.0505C41.7165 23.1337 41.8387 23.0929 41.9703 23.0389C42.0542 23.005 42.1425 22.9619 42.2275 22.9615C42.4099 22.9615 42.6005 22.8527 42.7769 22.9861C42.9356 22.8978 43.0929 22.7919 43.2683 22.9555C43.4144 22.7018 43.5943 23.0173 43.7651 22.9244C43.9257 22.8377 44.0973 22.9361 44.2566 22.9753C44.4286 23.0187 44.6093 23.0595 44.7588 23.1492C44.9589 23.2698 45.1142 23.4457 45.128 23.7049C45.1357 23.8335 45.1503 23.9597 45.1617 24.0898C45.0077 24.1723 44.8248 24.2273 44.704 24.3441C44.5766 24.4669 44.5095 24.6516 44.4076 24.8235C44.1626 24.7351 43.9395 24.6554 43.7163 24.574C43.5511 24.7904 43.3584 24.5717 43.1749 24.6001C42.7013 24.6734 42.217 24.6839 41.7401 24.7398C41.5455 24.7621 41.3565 24.869 41.1654 24.8716C40.9797 24.8736 40.8207 25.0204 40.632 24.9483C40.5109 25.1236 40.2997 24.9969 40.1675 25.0846C40.4472 25.4675 40.7235 25.8524 41.0064 26.2315C41.1868 26.4725 41.3774 26.7073 41.5696 26.9402C41.6766 27.0708 41.7952 27.1915 41.9087 27.3144C42.034 27.4504 42.1981 27.5653 42.2758 27.725C42.3599 27.8965 42.4945 27.9981 42.6315 28.0853C42.7703 28.1741 42.7748 28.4075 42.9882 28.3977C43.241 28.7971 43.6381 29.044 43.997 29.3207C44.561 29.7549 45.1359 30.1916 45.7602 30.5266C46.6114 30.9835 47.4819 31.4192 48.4122 31.7079C48.6945 31.7966 48.9711 31.9017 49.2577 31.9793C49.528 32.0531 49.7972 32.1535 50.0429 32.2897C50.1768 32.3629 50.2173 32.138 50.3553 32.257C50.4435 32.3343 50.6089 32.3216 50.7404 32.3473C50.8576 32.3707 50.9762 32.3904 51.0916 32.414C51.1926 32.4352 51.2983 32.449 51.3953 32.4848C51.6241 32.5693 51.8555 32.6022 52.0974 32.6341C52.4756 32.6861 52.8443 32.7707 53.2284 32.7282C53.3164 32.8427 53.4437 32.7997 53.5368 32.7703C53.747 32.7041 53.9403 32.7882 54.1282 32.8302C54.4589 32.9057 54.795 32.9206 55.1221 32.915C55.6014 32.9067 56.0766 32.8528 56.5458 32.9924C56.6166 33.0127 56.7353 33.013 56.7795 32.9719C57.0408 32.7188 57.2215 32.9633 57.423 33.0396L57.562 34.6285C57.2898 34.6948 57.0352 34.7206 56.7933 34.5664C56.7689 34.5509 56.7222 34.5231 56.7158 34.5307C56.5741 34.6724 56.4197 34.608 56.2657 34.5683C56.1454 34.7524 55.9342 34.7266 55.7897 34.695C55.2968 34.5876 54.7808 34.7425 54.2997 34.5473C53.8185 34.6744 53.3555 34.4032 52.8767 34.477C52.8348 34.4842 52.7858 34.4707 52.7453 34.453C52.648 34.4137 52.5553 34.3669 52.4611 34.322C52.3667 34.2754 52.3106 34.5247 52.2019 34.3553C51.9541 34.377 51.7322 34.3309 51.495 34.2312C51.2817 34.1418 51.004 34.2264 50.769 34.1725C50.5504 34.1226 50.3525 34.0266 50.1104 34.0336C49.9127 34.0402 49.7234 33.9009 49.5133 33.868C49.2655 33.8294 49.0233 33.7532 48.7828 33.6768C48.5715 33.6103 48.364 33.5257 48.1568 33.4447C48.1017 33.4229 48.0446 33.3571 47.9976 33.3665C47.7345 33.4161 47.5282 33.2641 47.3113 33.1733C47.0648 33.0691 46.761 33.078 46.58 32.8317C46.1818 32.7939 45.8762 32.5196 45.5031 32.4052C45.3647 32.3624 45.1397 32.3414 45.0846 32.116C45.0731 32.0656 44.9908 31.9949 44.9432 31.9973C44.6553 32.0065 44.4649 31.8142 44.2508 31.6753C44.0424 31.5395 43.8435 31.3921 43.6382 31.2525C43.4725 31.1395 43.2973 31.0397 43.1397 30.9189C42.855 30.7011 42.672 30.3505 42.275 30.2861C42.0807 30.0693 41.8865 29.8543 41.6906 29.6394C41.6494 29.5934 41.6048 29.5495 41.5569 29.5076C41.2803 29.2609 40.9447 29.0688 40.8041 28.6968C40.3647 28.3917 40.1599 27.8924 39.8195 27.5042C39.4831 27.121 39.1878 26.7005 38.8911 26.2855C38.7377 26.0704 38.6192 25.8293 38.4756 25.5851C38.1284 25.766 37.715 25.7579 37.3763 25.9753C37.021 25.9231 36.7186 26.2719 36.3487 26.113C36.3303 26.1057 36.2931 26.1054 36.2837 26.1187C36.048 26.4209 35.6331 26.335 35.3484 26.5423C35.2935 26.5825 35.1524 26.4886 35.0512 26.4851C34.8004 26.4734 34.594 26.6845 34.3334 26.6417C34.0605 26.8622 33.7254 26.7569 33.4219 26.81C33.3416 26.8241 33.254 26.8141 33.1645 26.8237C32.9579 26.8506 32.7359 26.9657 32.5192 26.8164C32.4682 26.7801 32.3629 26.8318 32.2872 26.8172C32.1468 26.7905 32.0542 26.9669 31.8791 26.8689C31.7766 26.8105 31.5996 26.8933 31.4559 26.8899C31.2909 26.8867 31.1232 26.8323 30.9615 26.8464C30.7998 26.8606 30.6616 26.8195 30.5117 26.7866C30.3186 26.745 30.1268 26.6786 29.9209 26.7338C29.7963 26.7677 29.677 26.7604 29.5736 26.6508C29.5306 26.605 29.4349 26.6045 29.3615 26.595C28.9763 26.5454 28.5722 26.5826 28.2327 26.3254C28.1816 26.2873 28.0834 26.3189 28.0079 26.3061C27.7129 26.2539 27.4404 26.1361 27.1619 26.0294C26.8853 25.9243 26.6028 25.8339 26.3346 25.7033C26.281 25.6779 26.2053 25.6827 26.1683 25.6452C26.0322 25.5066 25.867 25.4396 25.679 25.4171C25.5896 25.4072 25.4954 25.403 25.4161 25.3674C25.3608 25.3422 25.3399 25.2448 25.2842 25.216C25.0857 25.113 24.8751 25.034 24.6764 24.9292C24.3552 24.7589 24.0196 24.6076 23.7299 24.3939C23.0935 23.9218 22.4567 23.4444 21.8668 22.9169C21.1693 22.2925 20.5319 21.6062 19.9701 20.853C19.9521 20.8298 19.9442 20.8003 19.9312 20.7731C19.6494 20.9536 19.5763 21.3727 19.1575 21.4236C19.1604 21.4977 19.1635 21.5736 19.1666 21.6495C19.1415 21.6658 19.1185 21.6873 19.093 21.6984C19.0246 21.7274 18.9221 21.7293 18.8893 21.78C18.7827 21.9381 18.7607 22.172 18.483 22.1556C18.4581 22.1542 18.4444 22.3024 18.3954 22.3492C18.1851 22.5571 18.0715 22.8575 17.7806 22.9945C17.745 23.0118 17.7613 23.1379 17.7493 23.2434C17.4861 23.2311 17.3657 23.4541 17.2349 23.6391C17.0631 23.8826 17.0763 23.8921 16.7973 23.9413C16.6859 24.1051 16.753 24.3862 16.4705 24.4374C16.4022 24.6276 16.2996 24.7712 16.113 24.8849C15.9785 24.9675 15.8486 25.0816 15.7176 25.1834C15.608 25.2674 15.5301 25.3893 15.4347 25.4933C15.247 25.6957 14.9819 25.7827 14.7654 25.9397C14.6688 26.0102 14.5705 26.0808 14.478 26.1579C14.3972 26.2252 14.3302 26.3108 14.2448 26.3661C14.1593 26.4214 14.0161 26.425 13.9675 26.4966C13.88 26.63 13.735 26.5718 13.6387 26.6458C13.5673 26.6998 13.4731 26.7364 13.4241 26.8045C13.3469 26.9139 13.2834 26.8965 13.1738 26.8583C13.1118 26.8371 12.9933 26.9006 12.9383 26.9603C12.8187 27.0912 12.717 27.2241 12.5061 27.2018C12.4471 27.1963 12.3604 27.2571 12.319 27.3103C12.1898 27.4739 12.0534 27.3725 11.8972 27.3277C11.8476 27.4082 11.7962 27.4888 11.7589 27.5488C11.613 27.5615 11.5002 27.5679 11.3898 27.5811C11.2989 27.5943 11.1585 27.5889 11.1276 27.6412C11.0446 27.7848 10.8736 27.814 10.8024 27.992C10.6322 28.416 10.3848 28.806 10.0997 29.171C9.98657 29.3155 9.88333 29.4716 9.80019 29.6347C9.71705 29.7978 9.49522 29.8332 9.46116 30.031C9.11869 30.2664 8.93396 30.6651 8.60524 30.8957C8.41165 31.0313 8.35624 31.3089 8.09031 31.3464C7.80347 31.7115 7.38792 31.9214 7.03569 32.2073C6.69996 32.4793 6.33876 32.7234 5.96012 32.9301C5.5442 33.156 5.12224 33.3736 4.6979 33.5843C4.25485 33.8037 3.7811 33.9355 3.34141 34.1528C3.17836 34.2326 2.99326 34.2222 2.81746 34.2978C2.53063 34.4203 2.19231 34.4198 1.86403 34.4733L1.71011 32.7139C1.71813 32.7044 1.73546 32.6799 1.73913 32.6813C1.76527 32.6967 1.79342 32.735 1.81244 32.7298C1.99438 32.6838 2.17586 32.6325 2.35702 32.5777C2.6175 32.4982 2.85999 32.3548 3.14528 32.3564C3.2515 32.3559 3.35421 32.3558 3.44242 32.2507C3.51781 32.1608 3.64928 32.0643 3.75566 32.0657C3.90789 32.0647 3.97547 31.9667 4.08029 31.9097C4.1968 31.8446 4.38304 31.8478 4.44406 31.7557C4.63351 31.4717 5.01482 31.5588 5.21889 31.3C5.39408 31.0757 5.73093 31.0392 5.90221 30.7904C6.14197 30.8385 6.19798 30.5272 6.41746 30.5257C6.45292 30.5262 6.51839 30.485 6.51976 30.4601C6.53345 30.1915 6.79454 30.119 6.94504 30.0173C7.29294 29.7832 7.48325 29.3875 7.85991 29.1987C7.83852 28.9137 8.16752 28.9292 8.2634 28.7295C8.35318 28.541 8.50403 28.3826 8.63271 28.2137C8.64859 28.1928 8.68741 28.1912 8.77475 28.157C8.64969 28.1042 8.56682 28.0477 8.4774 28.0378C8.36834 28.0261 8.25311 28.045 8.14315 28.0635C7.90932 28.1034 7.68414 28.0399 7.45526 28.0351C7.23531 28.0313 7.02829 28.0335 6.84297 27.8992C6.73892 27.8233 6.66745 28.0792 6.53492 27.9208C6.48147 27.8564 6.3404 27.8634 6.23936 27.8422C6.12204 27.817 6.00357 27.799 5.88816 27.7755C5.78712 27.7542 5.68562 27.7277 5.58297 27.7083C5.55233 27.7022 5.51535 27.7249 5.48776 27.7131C5.29506 27.6361 5.1878 27.4223 4.90735 27.4557C4.73029 27.4765 4.52302 27.314 4.33918 27.2168C4.11436 27.0965 3.93473 26.8855 3.64571 26.902C3.473 26.9117 3.54357 26.686 3.36999 26.625C3.10147 26.5316 2.86735 26.3254 2.6386 26.1399C2.43087 25.9722 2.22062 25.7957 2.00916 25.646C1.65221 25.3921 1.41212 25.0164 1.01027 24.816C0.940054 24.4183 1.03736 24.0325 1.01951 23.6462C1.00534 23.3021 1.16243 22.9519 1.25385 22.5595C1.39914 22.7222 1.53342 22.8804 1.67572 23.0292C1.85893 23.2204 2.03878 23.4136 2.23818 23.5874C2.61213 23.9142 2.99907 24.2275 3.37783 24.5486C3.82747 24.9308 4.35034 25.1985 4.8406 25.5187C4.93639 25.5812 5.10436 25.4159 5.14895 25.6423C5.1593 25.6998 5.3493 25.7257 5.45845 25.7586C5.57126 25.793 5.69759 25.7997 5.7998 25.8545C6.00039 25.9609 6.2122 26.054 6.42841 26.0758C6.68551 26.0994 6.89591 26.2775 7.18201 26.2277C7.40705 26.1886 7.65281 26.3052 7.8853 26.3309C8.16617 26.363 8.45828 26.2808 8.74631 26.2733C8.92667 26.2699 9.1088 26.1654 9.29939 26.2993C9.35597 26.3386 9.50989 26.2153 9.62513 26.1964C9.71591 26.1814 9.81559 26.2276 9.90874 26.2194C9.99662 26.2117 10.0808 26.1618 10.1679 26.1454C10.7205 26.0439 11.2675 25.9199 11.7819 25.6854C11.9046 25.6304 12.0672 25.6268 12.1536 25.5413C12.2872 25.4091 12.4895 25.5349 12.6167 25.3484C12.7045 25.2186 12.9344 25.1949 13.072 25.0872C13.203 24.9854 13.3945 25.0077 13.4991 24.8267C13.5453 24.7483 13.7595 24.7667 13.918 24.7369C13.9236 24.6585 13.9299 24.5694 13.9367 24.4643L14.3761 24.4259L14.3555 24.1903C14.632 24.0103 14.8972 23.8436 15.1547 23.6688C15.2065 23.6342 15.2636 23.5778 15.2747 23.5219C15.3356 23.2474 15.6608 23.2597 15.7732 23.0462C15.9569 23.0815 15.9643 22.9019 16.0554 22.8302C16.3057 22.6347 16.4105 22.3139 16.6919 22.1493C16.7693 22.1036 16.8604 22.0106 16.8693 21.9301C16.8939 21.7261 17.0257 21.7145 17.1779 21.6516C17.2993 21.6021 17.1811 21.3237 17.3606 21.2708C17.5421 21.2195 17.4766 20.9968 17.6369 20.9473C17.7973 20.8978 17.8842 20.7769 17.9248 20.6139C17.9326 20.5814 17.9777 20.5509 18.0131 20.5301C18.2615 20.3932 18.2615 20.3932 18.2948 20.1264C18.3981 20.1121 18.5048 20.0974 18.5556 20.0912C18.692 19.9092 18.7875 19.745 18.9163 19.6186C19.0665 19.4727 19.2517 19.3626 19.4098 19.2266C19.4625 19.1812 19.4926 19.1006 19.5184 19.0311C19.569 18.9009 19.6485 18.8178 19.795 18.8316C19.9056 18.8414 20.0063 18.7971 20.0246 18.7034C20.0677 18.4871 20.2001 18.4012 20.3989 18.3661C20.4165 18.3645 20.4201 18.2845 20.4354 18.2159L20.815 18.1827C20.85 18.1371 20.8799 18.115 20.8831 18.0899C20.9182 17.8035 20.9154 17.7913 21.151 17.7512C21.2557 17.7332 21.3256 17.7023 21.3856 17.6191C21.5515 17.3903 21.8104 17.3535 22.0564 17.27C22.2784 17.1957 22.5958 17.221 22.6427 16.8662C22.6491 16.8179 22.7222 16.7424 22.7698 16.74C23.1776 16.7043 23.4681 16.3814 23.8396 16.2957C24.1974 16.2148 24.5306 16.0759 24.8757 15.9713C25.2033 15.87 25.534 15.7827 25.8814 15.7859C26.0192 15.641 26.1754 15.7053 26.3296 15.7467C26.4837 15.7881 26.6178 15.7622 26.7809 15.7232C27.2493 15.6113 27.7342 15.6468 28.214 15.7271C28.5681 15.7864 28.9354 15.7738 29.2557 15.9724C29.6884 15.8372 30.0254 16.2487 30.4466 16.1835C30.6971 16.3546 31.0051 16.3932 31.2684 16.5278C31.4167 16.6034 31.564 16.6684 31.7181 16.7293C31.9126 16.8062 32.1532 16.8028 32.2812 17.0112C32.5937 17.0406 32.8222 17.2632 33.0975 17.3737C33.2444 17.4335 33.3622 17.5242 33.4739 17.6472C33.7328 17.9345 33.7461 17.9245 33.6443 18.2787C33.6336 18.3186 33.6176 18.3785 33.5902 18.3897C33.2206 18.5177 33.071 18.8726 32.8157 19.1128C32.0905 18.9 31.4649 18.4499 30.7442 18.2084C30.1821 18.0184 29.6288 17.8083 29.0709 17.6056C29.0562 17.5998 29.0453 17.576 29.0347 17.5769C28.697 17.6029 28.3807 17.4906 28.0552 17.4341C27.8609 17.3997 27.6616 17.3888 27.4651 17.3901C27.2739 17.3909 27.0776 17.4541 26.8911 17.4279C26.6974 17.4006 26.5272 17.4385 26.3448 17.4793C26.1434 17.5252 25.927 17.5016 25.7254 17.5458C25.496 17.596 25.2915 17.7892 25.0335 17.6135C25.0052 17.5929 25.0562 17.7921 24.9038 17.8108C24.7409 17.8321 24.571 17.8735 24.427 17.9481C24.2151 18.057 23.9523 18.0286 23.7747 18.2461C23.6932 18.347 23.5121 18.4019 23.3695 18.4126C23.1743 18.4279 22.9963 18.4789 22.8716 18.612C22.7549 18.7355 22.6881 18.5997 22.584 18.6035L22.5812 18.6126Z" fill="black"/>
<mask id="mask1_1_8" style="mask-type:luminance" maskUnits="userSpaceOnUse" x="22" y="34" width="14" height="12">
<path d="M34.8613 34.4214L22.1255 35.5356L22.9568 45.0374L35.6926 43.9231L34.8613 34.4214Z" fill="white"/>
</mask>
<g mask="url(#mask1_1_8)">
<path d="M24.4184 44.0584C24.3743 43.8781 24.4112 43.6729 24.2012 43.5603C24.1716 43.5451 24.1487 43.4462 24.1539 43.444C24.2961 43.3695 24.123 43.2731 24.1731 43.1979C24.4186 42.8257 24.8103 42.6675 25.2542 42.7615C25.312 42.7741 25.3721 42.7937 25.4303 42.7903C25.6455 42.7804 25.8513 42.7641 26.0723 42.821C26.2717 42.8726 26.5026 42.739 26.7092 42.8733C26.7203 42.8794 26.741 42.8723 26.7566 42.8691C27.3028 42.7753 27.8555 42.9395 28.4014 42.8226C29.1908 42.6544 30.0102 42.6075 30.7501 42.2381C31.3958 42.1887 31.9249 41.7581 32.5628 41.6811C32.6154 41.6747 32.6595 41.6124 32.7144 41.5916C32.9439 41.5025 33.1762 41.5867 33.323 41.8076C33.3639 41.8695 33.3932 41.9414 33.4438 41.9936C33.5216 42.0736 33.6142 42.1399 33.7002 42.212C33.6167 42.3097 33.5349 42.4072 33.4385 42.5201L33.4914 43.1247C33.2881 43.2098 33.1035 43.3269 32.9047 43.362C32.5717 43.423 32.3133 43.6883 31.9876 43.7097C31.6934 43.7283 31.4662 43.9041 31.1793 43.9451C30.8907 43.9863 30.6222 44.1568 30.3168 44.2083C30.1753 44.2313 30.0341 44.3782 29.8875 44.322C29.7336 44.2629 29.6844 44.4708 29.5174 44.404C29.4091 44.3603 29.2433 44.4687 29.102 44.4934C28.9607 44.5182 28.8156 44.5203 28.6715 44.5329L28.1934 44.5747C28.0493 44.5873 27.9063 44.6122 27.7625 44.6089C27.6614 44.6071 27.5584 44.5435 27.4598 44.5503C27.3788 44.5556 27.2828 44.6721 27.2226 44.6526C26.8212 44.5177 26.4106 44.5412 26.0012 44.538C25.9125 44.5369 25.8178 44.4868 25.7363 44.5063C25.5141 44.5576 25.2962 44.5165 25.0991 44.4505C24.8601 44.3704 24.5551 44.3865 24.4201 44.0583L24.4184 44.0584Z" fill="black"/>
<path d="M25.6369 36.9737C25.6724 37.1973 25.5113 37.3601 25.4814 37.5452C25.4494 37.7463 25.4383 37.9226 25.2324 38.0186C25.0585 38.4199 24.6297 38.4574 24.3083 38.6308C23.9058 38.8484 23.8814 38.8116 23.4941 38.5355C23.4449 38.4991 23.3733 38.4292 23.3427 38.4443C23.0968 38.549 23.0263 38.3303 22.9082 38.2148C22.7901 38.0994 22.5805 38.0522 22.5963 37.8277C22.3486 37.6687 22.3758 37.3723 22.2814 37.1433C22.221 36.9998 22.2771 36.7912 22.3245 36.6241C22.4466 36.1778 22.7514 35.8553 23.106 35.5763C23.4014 35.593 23.6558 35.2413 23.9775 35.4771C24.1356 35.3818 24.3143 35.6017 24.4688 35.4447C24.7152 35.5277 24.953 35.6149 25.1298 35.8332C25.3046 36.0499 25.3765 36.3057 25.4779 36.5537C25.5343 36.6922 25.5838 36.8331 25.6369 36.9737Z" fill="black"/>
<path d="M34.4849 35.1594C34.6363 35.3516 34.7576 35.5234 34.8381 35.7148C35.0932 36.3229 35.1651 36.9224 34.7332 37.4915C34.716 37.7409 34.444 37.708 34.3221 37.8533C34.2483 37.9412 34.077 37.9474 33.9481 37.9923C33.9018 38.0088 33.5923 38.0341 33.5492 38.0272C33.4162 38.0052 33.2819 37.9886 33.1487 37.9648C33.0461 37.9455 32.9388 37.9336 32.8466 37.8921C32.7654 37.8549 32.7066 37.7697 32.6266 37.7254C32.5504 37.6842 32.4494 37.6842 32.3762 37.6375C32.2993 37.5875 32.3118 37.427 32.158 37.4511C32.151 37.4517 32.1429 37.2983 32.1008 37.2418C31.8389 36.8804 31.8902 36.4951 32.0048 36.1043C32.0308 36.017 32.2251 35.7078 32.2867 35.6422C32.4111 35.5056 32.5247 35.3663 32.6851 35.2567C32.8607 35.1386 33.0334 35.0881 33.2361 35.0562C33.5592 35.0049 33.6878 35.0166 34.0658 35.1465C34.1918 35.1904 34.343 35.1577 34.485 35.1612L34.4849 35.1594Z" fill="black"/>
</g>
<mask id="mask2_1_8" style="mask-type:luminance" maskUnits="userSpaceOnUse" x="3" y="50" width="58" height="22">
<path d="M58.5933 50.2316L3.81689 55.0239L5.26789 71.6089L60.0443 66.8166L58.5933 50.2316Z" fill="white"/>
</mask>
<g mask="url(#mask2_1_8)">
<path d="M30.9774 53.7096C15.1798 54.5249 5.52256 61.0137 2.66858 64.1561L3.23753 70.6593L58.8663 65.7924L59.3321 57.9589C56.4628 56.2027 46.7749 52.8942 30.9774 53.7096Z" fill="#F23540"/>
<path d="M30.9325 54.539C30.9421 54.6497 30.916 54.776 30.9669 54.8317C31.0589 54.9317 31.0758 54.9834 31.0019 55.1085C30.9538 55.1871 30.9639 55.3438 31.012 55.4282C31.1873 55.7316 31.1442 56.0684 31.183 56.3908C31.2289 56.7729 31.2467 57.1575 31.2889 57.5399C31.3055 57.689 31.2598 57.8541 31.4121 57.9772C31.5378 58.0777 31.2129 58.1699 31.3846 58.309C31.4914 58.3971 31.5055 58.518 31.4024 58.6351C31.3864 58.6542 31.3783 58.7027 31.3904 58.7211C31.6234 59.0762 31.5215 59.489 31.5798 59.8735C31.6392 60.2686 31.6497 60.6714 31.6933 61.0697C31.7099 61.2187 31.6542 61.3919 31.8132 61.509C31.8398 61.5297 31.8214 61.6022 31.8391 61.6431C31.9072 61.8125 31.6646 61.9559 31.8354 62.1677C31.945 62.3051 31.9105 62.5596 31.9353 62.7629C31.9574 62.954 31.9689 63.1461 31.9856 63.3376L32.04 63.9598C32.0568 64.1514 32.0736 64.343 32.0903 64.5346C32.1386 65.1467 32.3353 65.7352 32.354 66.3534C32.3731 66.9769 32.4559 67.5984 32.5105 68.2224C32.5146 68.2699 32.5007 68.3331 32.5263 68.3627C32.6744 68.5375 32.6899 68.715 32.5723 68.9095C32.5197 68.9973 32.7315 69.0089 32.6325 69.1327C32.5464 69.2412 32.4408 69.2291 32.3354 69.2384C31.8592 69.2818 31.381 69.3219 30.8537 69.368C30.8781 69.2419 30.9016 69.146 30.9163 69.0508C30.9251 68.9898 30.9514 68.9061 30.9218 68.8715C30.7351 68.6398 30.8062 68.3591 30.7659 68.1005C30.7369 67.91 30.7845 67.6862 30.6986 67.5343C30.5938 67.3487 30.719 67.1996 30.6826 67.0274C30.6467 66.8606 30.5466 66.7081 30.5417 66.5509C30.5322 66.2596 30.3883 65.9711 30.5386 65.6657C30.5808 65.5805 30.4427 65.419 30.4259 65.2877C30.3814 64.9214 30.3669 64.5525 30.3207 64.1864C30.2952 63.9761 30.3612 63.7383 30.1757 63.5615C30.1583 63.5453 30.1556 63.4924 30.1675 63.4684C30.3003 63.2247 30.0889 63.0148 30.0985 62.7801C30.1077 62.542 30.0637 62.3014 30.0428 62.0624L29.9757 61.2961C29.9646 61.1678 29.9569 61.0409 29.9422 60.9129C29.9291 60.8043 29.9433 60.6613 29.8794 60.5996C29.7882 60.5084 29.9478 60.3687 29.7948 60.3219C29.8089 60.1382 29.6934 59.9517 29.821 59.7706C29.8398 59.7423 29.8344 59.6596 29.812 59.6474C29.6887 59.5732 29.748 59.4422 29.7028 59.3505C29.6311 59.1992 29.8034 59.0619 29.6821 58.8919C29.6015 58.7802 29.6409 58.582 29.6269 58.422C29.6115 58.2463 29.5961 58.0705 29.5807 57.8948L29.543 57.4641C29.5304 57.32 29.5249 57.1753 29.5036 57.0337C29.4838 56.9079 29.3853 56.7536 29.4293 56.67C29.5203 56.4956 29.4298 56.4114 29.3505 56.2961C29.3344 56.2728 29.379 56.2157 29.3839 56.171C29.3955 56.0814 29.434 55.9753 29.4011 55.9021C29.2265 55.5064 29.2615 55.0766 29.1936 54.6645C28.92 54.715 28.6651 54.7568 28.4149 54.8124C28.1596 54.8701 27.8705 54.7643 27.6438 54.9666C27.532 54.8028 27.41 54.9871 27.3102 54.9586C27.1758 54.9208 27.1148 55.0536 26.9912 55.0379C26.8515 55.02 26.704 55.0541 26.5602 55.0703C26.4233 55.084 26.2724 55.0618 26.1765 55.1995C25.9811 55.0518 25.8179 55.1901 25.6307 55.2366C25.2233 55.3378 24.8018 55.3782 24.3888 55.455C24.2737 55.4757 24.1201 55.6025 24.0619 55.5651C23.9059 55.4619 23.8195 55.6076 23.7013 55.6126C23.5812 55.6178 23.4457 55.5871 23.3568 55.7242C23.3349 55.758 23.237 55.7524 23.1747 55.749C23.0947 55.7436 23.0072 55.6964 22.9362 55.715C22.8548 55.7363 22.7889 55.8129 22.7137 55.8637C22.6903 55.8799 22.648 55.9031 22.6311 55.8922C22.352 55.7377 22.1075 55.9593 21.8497 55.9889C21.6183 56.0162 21.3613 56.1149 21.123 56.2048C20.7937 56.3275 20.4242 56.335 20.0749 56.4116C19.6441 56.5077 19.2118 56.6076 18.7909 56.7365C18.4857 56.8305 18.1851 56.9365 17.8703 56.9835C17.6728 57.0132 17.4772 57.025 17.2935 57.1314C16.9953 57.3062 16.6198 57.2647 16.3293 57.4265C16.108 57.5486 15.8606 57.5153 15.6423 57.6513C15.4593 57.7665 15.2055 57.7798 14.98 57.8137C14.8734 57.8301 14.8041 57.8681 14.7474 57.9492C14.7285 57.9757 14.69 58.0215 14.6881 58.0199C14.3546 57.771 14.22 58.2575 13.9074 58.2264C13.6464 58.1996 13.4028 58.4919 13.096 58.4674C12.6972 58.7059 12.2404 58.8097 11.8195 58.9988C11.4394 59.1684 11.0422 59.3041 10.6532 59.4533C10.6103 59.4694 10.5608 59.4702 10.5238 59.4929C10.4566 59.5342 10.3489 59.6393 10.3373 59.6279C10.2279 59.5312 10.2196 59.7002 10.1583 59.6879C10.0069 59.6568 10.0311 59.9133 9.83895 59.8628C9.75373 59.8402 9.62962 59.9803 9.51731 60.0326C9.39651 60.0892 9.26493 60.1238 9.14429 60.1822C9.02541 60.2404 8.91541 60.3191 8.79905 60.3859C8.68445 60.4526 8.56873 60.5672 8.45036 60.5705C8.19603 60.5786 8.05032 60.7755 7.8454 60.8625C7.64209 60.9476 7.46127 61.0874 7.26699 61.1947C7.17577 61.2452 7.07789 61.2804 6.98016 61.3173C6.9373 61.3334 6.87363 61.3142 6.84223 61.3399C6.70367 61.4566 6.65113 61.6861 6.40603 61.6579C6.3076 61.8082 6.10563 61.8277 6.0032 61.9323C5.7028 62.2437 5.29975 62.3941 4.95288 62.7007C4.6508 62.1427 4.45892 61.5892 4.33664 61.0013C4.67729 60.7855 4.92995 60.5154 5.3061 60.3816C5.59974 60.2762 5.84247 60.0141 6.1191 59.8358C6.50811 59.5857 6.919 59.3833 7.32308 59.1637C7.71371 58.9524 8.13073 58.7796 8.5099 58.5587C8.96317 58.2941 9.46205 58.146 9.92229 57.9002C10.362 57.6634 10.8396 57.4746 11.3094 57.2972C11.8391 57.0967 12.3521 56.8269 12.8928 56.6911C13.3954 56.5656 13.8369 56.2666 14.3633 56.2312C14.543 56.0791 14.7817 56.0742 14.9888 55.9923C15.2952 55.8699 15.6232 55.7933 15.9434 55.7086C16.326 55.6079 16.714 55.5066 17.0844 55.3892C17.4515 55.2738 17.8379 55.1958 18.1997 55.0401C18.4301 54.9403 18.7088 54.9673 18.9646 54.8741C19.3334 54.7373 19.7369 54.7144 20.1129 54.5788C20.3996 54.4757 20.7168 54.4569 21.0192 54.3914C21.1965 54.3529 21.3701 54.2917 21.5471 54.2514C21.7243 54.2111 21.9301 54.2763 22.0767 54.1094C22.0912 54.0922 22.1382 54.104 22.1697 54.0995C22.5536 54.034 22.9479 54.0066 23.3151 53.8913C23.6804 53.7761 24.0796 53.8244 24.4112 53.6873C24.7463 53.55 25.122 53.6535 25.4323 53.435C25.5223 53.3705 25.6837 53.4131 25.8093 53.3914C26.1304 53.3368 26.4758 53.4181 26.7677 53.212C26.8979 53.1209 27.0253 53.3028 27.179 53.1972C27.2826 53.1262 27.4576 53.1622 27.5971 53.1376C27.7453 53.1105 27.9131 53.1666 28.0381 53.0158C28.075 52.9718 28.1954 52.9719 28.2677 52.9886C28.4739 53.0361 28.6628 52.97 28.8605 52.9421C29.431 52.8638 30.0323 52.9139 30.5765 52.7583C31.1227 52.6025 31.6699 52.6219 32.2124 52.5479C32.7829 52.4696 33.3606 52.4332 33.9365 52.397C34.1637 52.3825 34.4107 52.4724 34.6198 52.4134C34.8429 52.3514 35.0505 52.4165 35.2648 52.3765C35.4844 52.336 35.7108 52.3321 35.934 52.3126C36.1731 52.2917 36.425 52.2147 36.6505 52.2623C37.1142 52.3599 37.5583 52.2325 38.0114 52.23C38.2239 52.2292 38.4387 52.2546 38.6506 52.268C38.8643 52.2829 39.0861 52.1449 39.2915 52.3058C39.3104 52.3201 39.353 52.3004 39.3848 52.2994C39.8375 52.2917 40.2897 52.2787 40.7432 52.2797C40.892 52.2809 41.0406 52.3175 41.1907 52.3327C41.3246 52.3457 41.4689 52.2534 41.5973 52.3856C41.6247 52.4151 41.7238 52.3941 41.7822 52.3748C42.0336 52.2926 42.2683 52.4438 42.5189 52.4131C42.7625 52.3829 42.9946 52.4671 43.2309 52.5155C43.35 52.5405 43.4812 52.5024 43.606 52.511C43.7237 52.5202 43.841 52.5648 43.9585 52.5722C44.3343 52.596 44.7074 52.6289 45.0739 52.7297C45.2753 52.7847 45.4947 52.7832 45.7014 52.797C46.1699 52.8286 46.6278 52.9196 47.0792 53.0183C47.2164 53.0488 47.3489 53.023 47.4834 53.0626C47.7395 53.1358 47.9993 53.2105 48.2616 53.2531C48.5294 53.2987 48.7943 53.3305 49.0288 53.48C49.7759 53.4766 50.4235 53.9141 51.1562 53.9704C51.4786 54.2132 51.8902 54.2002 52.2486 54.3495C52.6988 54.5368 53.1857 54.6359 53.636 54.8232C54.1305 55.0296 54.6497 55.1737 55.1289 55.4081C55.7746 55.7235 56.445 55.9783 57.0881 56.3029C57.6495 56.5867 58.205 56.8835 58.7666 57.1691C58.9185 57.2461 59.0509 57.362 59.2225 57.4816C59.0942 58.0791 58.9657 58.6748 58.8305 59.2959C58.6548 59.1696 58.5048 58.9737 58.3389 58.9599C58.0746 58.9352 57.9626 58.7076 57.7383 58.6352C57.5489 58.5738 57.402 58.3741 57.1724 58.3606C56.6405 57.9502 56.0136 57.7075 55.411 57.4396C55.1494 57.3244 54.8915 57.1698 54.5762 57.1283C54.295 57.0927 54.0342 56.8853 53.7687 56.7456C53.622 56.6681 53.4738 56.6138 53.3106 56.5696C53.1294 56.5235 52.8999 56.5524 52.773 56.3563C52.4404 56.2791 52.1269 56.1365 51.7988 56.0501C51.5776 55.9915 51.3837 55.881 51.1729 55.8197C50.9731 55.7628 50.7676 55.7436 50.5652 55.6763C50.2552 55.5741 49.95 55.4255 49.6376 55.3767C49.3089 55.3257 48.9981 55.2343 48.678 55.1595C48.1285 55.0323 47.5674 54.9556 47.0372 54.7452C46.8555 54.6725 46.6558 54.7573 46.451 54.6849C46.1315 54.5747 45.7742 54.6414 45.4402 54.4882C45.2539 54.4035 44.9942 54.5113 44.758 54.4434C44.558 54.3847 44.2966 54.4731 44.1306 54.3778C43.9179 54.2548 43.7145 54.3788 43.5009 54.2859C43.2781 54.1885 42.9889 54.2422 42.7306 54.2258C42.5489 54.2134 42.366 54.1674 42.1869 54.1848C42.0058 54.2007 41.8498 54.1577 41.7064 54.0781C41.6191 54.0308 41.6129 54.1022 41.5677 54.1133C41.4637 54.1383 41.3489 54.1625 41.2478 54.1412C40.9501 54.0787 40.651 54.0394 40.3453 54.0466C40.2181 54.0507 40.0745 53.9889 39.9682 54.03C39.8449 54.078 39.7591 54.128 39.6327 54.0399C39.5194 53.9595 39.3487 54.1143 39.2367 53.9683C39.1416 54.1165 38.9944 53.9116 38.9475 53.983C38.8476 54.1369 38.7676 53.9899 38.6833 53.999C38.1516 54.0544 37.6169 53.9364 37.0839 54.038C36.9601 54.0612 36.7578 53.9549 36.706 54.0108C36.5686 54.161 36.4458 53.9716 36.3878 54.0174C36.2321 54.1408 36.0645 53.966 35.9398 54.0584C35.7702 54.1848 35.6087 54.0183 35.4335 54.0814C35.2722 54.1398 35.0846 54.1208 34.9106 54.136C34.7366 54.1513 34.5591 54.1685 34.3832 54.1822C34.2582 54.1913 34.061 54.244 34.0207 54.1873C33.9157 54.0406 33.831 54.3279 33.7642 54.1726C33.7596 54.1606 33.7411 54.1515 33.7281 54.1438C33.5618 54.045 33.4827 54.3761 33.2635 54.2181C33.1538 54.1392 32.9111 54.1781 32.7588 54.2393C32.598 54.3047 32.4643 54.3341 32.3062 54.2682C32.1737 54.2108 32.118 54.5061 31.9384 54.3358C31.8361 54.2385 31.7089 54.324 31.6165 54.4224C31.6003 54.4398 31.554 54.4368 31.5234 54.4306C31.4245 54.4144 31.3214 54.3686 31.2271 54.3839C31.1292 54.3978 31.0397 54.4694 30.9226 54.5274L30.9325 54.539Z" fill="black"/>
</g>
</g>
<path d="M39.0407 12.2691L14.2581 14.4373C6.49246 15.1167 0.747913 21.9628 1.42732 29.7285L3.59551 54.511C4.27492 62.2767 11.121 68.0212 18.8867 67.3418L43.6692 65.1736C51.4349 64.4942 57.1794 57.6481 56.5 49.8825L54.3318 25.0999C53.6524 17.3343 46.8063 11.5897 39.0407 12.2691Z" stroke="black" stroke-width="1.76434"/>
</g>
<defs>
<clipPath id="clip0_1_8">
<rect width="58" height="58" fill="white" transform="translate(0.152832 10.9927)"/>
</clipPath>
</defs>
</svg>
