<svg width="57" height="57" viewBox="0 0 57 57" fill="none" xmlns="http://www.w3.org/2000/svg">
<g clip-path="url(#clip0_86_69)">
<mask id="mask0_86_69" style="mask-type:luminance" maskUnits="userSpaceOnUse" x="1" y="1" width="54" height="54">
<path d="M42.6106 3.67012L17.794 1.93477C10.5037 1.42498 4.18049 6.92168 3.6707 14.212L1.93535 39.0286C1.42556 46.3189 6.92226 52.6421 14.2126 53.1519L39.0292 54.8873C46.3195 55.397 52.6427 49.9003 53.1525 42.61L54.8878 17.7934C55.3976 10.5031 49.9009 4.1799 42.6106 3.67012Z" fill="white"/>
</mask>
<g mask="url(#mask0_86_69)">
<path d="M42.6106 3.67012L17.794 1.93477C10.5037 1.42498 4.18049 6.92168 3.6707 14.212L1.93535 39.0286C1.42556 46.3189 6.92226 52.6421 14.2126 53.1519L39.0292 54.8873C46.3195 55.397 52.6427 49.9003 53.1525 42.61L54.8878 17.7934C55.3976 10.5031 49.9009 4.1799 42.6106 3.67012Z" fill="#FFBB00"/>
<path d="M8.97337 11.7503C6.18389 9.14987 1.93362 8.72296 0.157162 8.83456L-1.17091 -5.05371L36.5555 -3.29995L60.7862 1.75486C60.9191 6.59845 60.6922 16.2512 58.721 16.1134C56.2569 15.9411 50.4943 12.3545 47.6167 13.0377C41.7631 15.8119 35.8072 17.5178 31.9684 14.2427C28.1295 10.9675 22.5097 10.3976 18.8296 12.4395C15.1495 14.4814 12.4602 15.0009 8.97337 11.7503Z" fill="black"/>
<path d="M-0.177597 11.0558C-0.121659 10.6352 -0.0974994 10.315 -0.0200464 9.99148C0.054662 9.68188 0.121432 9.35935 0.18014 9.02565C0.495199 8.97163 0.790381 8.82248 1.11031 8.74934C1.23434 8.72087 1.34923 8.72183 1.46888 8.70544C1.58664 8.69068 1.70502 8.66712 1.81873 8.6344C2.09315 8.55454 2.37279 8.60239 2.64818 8.58451C2.82767 8.5723 3.04258 8.45822 3.18275 8.55291C3.35338 8.66743 3.50219 8.48682 3.67421 8.60673C3.81074 8.70295 4.03419 8.66905 4.21715 8.70837C4.87944 8.84842 5.51409 9.08028 6.14436 9.32421C6.28571 9.52864 6.49744 9.56114 6.72232 9.55741C6.83665 9.76879 7.09243 9.75308 7.25303 9.88457C7.51229 10.0972 7.80137 10.2377 8.12169 10.3361C8.22909 10.3684 8.30721 10.4906 8.41088 10.5509C8.62841 10.6776 8.87918 10.7588 9.06986 10.9154C9.27224 11.0816 9.47671 11.2179 9.71946 11.3127C9.85543 11.3665 9.98415 11.448 10.1075 11.5309C10.3931 11.7207 10.6995 11.8659 11.0115 12.008C11.3046 12.1417 11.5638 12.3543 11.8745 12.4645C12.0574 12.5303 12.2382 12.5996 12.4256 12.6516C12.6303 12.7084 12.86 12.712 13.0444 12.8063C13.1606 12.8657 13.2657 12.9049 13.3889 12.9135C13.7884 12.9414 14.188 12.9694 14.5875 12.9973C14.8087 12.843 15.0806 12.9009 15.3249 12.8225C15.721 12.6963 16.1227 12.5918 16.5011 12.4166C16.7589 12.2967 17.0558 12.2485 17.2622 12.0294C17.6323 12.0217 17.8923 11.6932 18.281 11.6992C18.4383 11.7013 18.6012 11.5465 18.7547 11.4511C18.9247 11.3463 19.0837 11.223 19.2522 11.1145C19.2874 11.0922 19.3568 11.1112 19.3799 11.0845C19.5106 10.9345 19.7148 11.1256 19.861 10.9572C19.9475 10.8589 20.1399 10.8635 20.2637 10.7873C20.5245 10.6251 20.8285 10.6021 21.1033 10.4922C21.4381 10.3582 21.7922 10.3016 22.1459 10.2521C22.5692 10.1933 22.9877 10.0757 23.4232 10.1451C23.698 9.95918 24.0053 10.1681 24.2881 10.0694C24.5855 9.96464 24.8897 10.0407 25.1784 10.0856C25.6104 10.1548 26.0563 10.1771 26.4718 10.2804C27.0628 10.4279 27.6462 10.6332 28.2269 10.8277C28.5829 10.9463 28.9162 11.1128 29.2662 11.2417C29.6094 11.3665 29.9025 11.6275 30.2408 11.7714C30.696 11.9642 31.0344 12.3611 31.5287 12.4752C31.7496 12.7064 32.0229 12.8688 32.2886 13.0413C32.6015 13.2453 32.8984 13.4765 33.2113 13.6806C33.597 13.9322 33.9863 14.1823 34.386 14.4101C34.9558 14.7347 35.547 15.0059 36.1812 15.1935C36.6109 15.3209 37.0338 15.4442 37.4813 15.4701C37.6486 15.4801 37.8219 15.4551 37.9679 15.5926C38.0127 15.6347 38.1345 15.6379 38.2002 15.6089C38.3172 15.5551 38.4176 15.4596 38.5099 15.6323C38.7404 15.5228 38.9927 15.6077 39.23 15.5518C39.2732 15.5424 39.3171 15.4959 39.3535 15.5056C39.7348 15.5924 40.0728 15.4374 40.4216 15.3309C40.5518 15.2905 40.9139 15.2981 41.0478 15.3304C41.0773 15.3378 41.1335 15.3435 41.1395 15.3333C41.2697 15.04 41.5766 15.1534 41.7876 15.0444C41.7921 14.981 41.7966 14.9159 41.801 14.8525C41.8285 14.8385 41.8572 14.8087 41.8799 14.8121C42.13 14.8525 42.3079 14.7111 42.5153 14.6036C43.0162 14.345 43.532 14.1016 44.0648 13.9178C44.2606 13.8501 44.3597 13.6714 44.5727 13.635C44.7696 13.6027 44.9993 13.5799 45.1482 13.3975C45.4654 13.3896 45.6862 13.1398 45.9756 13.0734C46.0745 13.0502 46.1836 12.881 46.2944 13.0673C46.2959 13.071 46.3669 13.0423 46.3952 13.0178C46.6137 12.8261 46.8991 12.8426 47.1539 12.7649C47.5913 12.631 48.0571 12.6972 48.4955 12.5739C48.5389 12.5611 48.5907 12.5788 48.6382 12.5821C48.9092 12.6011 49.1878 12.6648 49.4522 12.6267C49.6989 12.5891 49.9178 12.6716 50.14 12.7049C50.3798 12.7411 50.6149 12.8194 50.8629 12.8385C51.1074 12.8574 51.3259 13.0212 51.5852 12.981C52.0171 13.2287 52.5264 13.2803 52.9617 13.5053C53.1597 13.6075 53.3869 13.5191 53.5735 13.6842C53.6469 13.7477 53.8286 13.7534 53.9458 13.8235C54.1972 13.9719 54.4838 13.9442 54.7363 13.976C54.9106 14.1651 54.9533 14.3626 54.9373 14.5914C54.9169 14.8836 54.8721 15.1705 54.957 15.4736C55.0304 15.7387 54.8636 15.7978 54.5622 15.7573C54.2187 15.712 53.9006 15.5819 53.5635 15.5212C53.3033 15.4747 53.0343 15.4258 52.7871 15.2935C52.632 15.2102 52.4339 15.2105 52.2631 15.149C52.0543 15.0743 51.8544 14.9736 51.652 14.8834C51.597 14.8601 51.5438 14.8122 51.4907 14.812C51.2377 14.8138 51.0017 14.7495 50.7691 14.6607C49.9802 14.358 49.1452 14.3615 48.3205 14.2932C48.1973 14.2846 48.1087 14.312 48.0248 14.3981C48.0039 14.4196 47.9355 14.4361 47.9257 14.4248C47.7794 14.2412 47.6397 14.3924 47.5076 14.4345C47.0989 14.5633 46.6626 14.6053 46.2831 14.8228C46.1904 14.6306 46.0892 14.8641 45.9723 14.8152C45.7559 14.7241 45.684 14.9171 45.6048 15.0637C45.481 15.1134 45.2712 14.9272 45.2342 15.204C45.2333 15.2163 45.2091 15.2341 45.1985 15.2334C44.7841 15.1655 44.5469 15.5221 44.2158 15.6546C43.9828 15.7479 43.7162 15.8177 43.5468 16.0393C43.5313 16.0595 43.4872 16.0829 43.4683 16.0745C43.2154 15.9737 43.0555 16.1854 42.8811 16.2775C42.6736 16.3868 42.4902 16.5049 42.241 16.4768C41.9585 16.4447 41.8044 16.6762 41.5937 16.8313C41.5445 16.8013 41.4937 16.7695 41.4174 16.7217C41.3572 16.7741 41.2878 16.8559 41.1993 16.9063C41.0704 16.9804 40.9437 17.0724 40.7774 17.0466C40.7144 17.0369 40.6175 17.0071 40.5906 17.0371C40.3325 17.3144 39.9662 17.1137 39.6753 17.2525C39.4796 17.3449 39.2565 17.324 39.0395 17.3159C38.8596 17.3086 38.6738 17.209 38.4916 17.3607C38.392 17.444 38.3115 17.1536 38.1258 17.3051C38.0322 17.3799 37.8203 17.3244 37.666 17.3048C37.5327 17.2884 37.3762 17.3517 37.268 17.2044C37.2487 17.1766 37.1786 17.1681 37.1372 17.1776C36.9989 17.2086 36.8808 17.2782 36.7284 17.1561C36.6212 17.0708 36.4319 17.1725 36.2915 17.03C36.2238 16.9616 36.0462 16.997 35.9174 16.9933C35.8044 16.9907 35.6986 16.985 35.6248 16.8773C35.6136 16.8606 35.5487 16.879 35.5374 16.8623C35.3951 16.6472 35.1228 16.8227 34.9423 16.6474C34.8163 16.5272 34.6085 16.4631 34.4298 16.3887C34.16 16.2761 33.8462 16.2365 33.6247 16.0141C33.3868 16.0275 33.3408 15.6741 33.0785 15.7318C33.0534 15.7371 33.0067 15.7215 32.9974 15.7031C32.8681 15.427 32.5426 15.4025 32.3504 15.1927C32.1761 15.0037 31.8995 14.9118 31.6763 14.7653C31.4142 14.5931 31.1584 14.4072 30.9022 14.2266C30.8769 14.2089 30.8638 14.1691 30.8381 14.1567C30.4737 13.9808 30.1509 13.7407 29.8164 13.5157C29.5005 13.3044 29.1543 13.121 28.776 13.0167C28.6371 12.9787 28.5131 12.8816 28.3877 12.8021C27.9682 12.5287 27.4543 12.4927 27.0217 12.2556C26.8479 12.1603 26.6124 12.2659 26.4584 12.0906C26.022 12.0583 25.6082 11.8808 25.1613 11.8973C25.0159 11.9031 24.8396 11.9456 24.7215 11.7887C24.7086 11.7702 24.651 11.7591 24.6342 11.772C24.4888 11.8786 24.3538 11.9116 24.233 11.7422C24.1202 11.8882 23.9679 11.7909 23.8338 11.8116C23.2988 11.8997 22.7577 11.9238 22.2216 12.0278C21.6173 12.1447 21.0619 12.3995 20.4689 12.5331C20.3179 12.5668 20.2509 12.792 20.0557 12.7005C19.7391 12.903 19.3777 13.0122 19.0394 13.1707C18.4615 13.4433 17.9245 13.8126 17.2887 13.952C16.9687 14.2286 16.5329 14.2122 16.1714 14.3992C15.8743 14.5517 15.5179 14.5887 15.1881 14.6771C14.9844 14.7318 14.7826 14.6841 14.5785 14.7194C14.4013 14.7494 14.2182 14.6871 14.0316 14.7749C13.9384 14.8179 13.791 14.7509 13.6708 14.7249C13.5679 14.7035 13.4597 14.6836 13.3655 14.6398C13.2456 14.5837 13.1463 14.7642 13 14.6302C12.9169 14.5536 12.7179 14.6175 12.5807 14.5814C12.4538 14.5496 12.3391 14.4708 12.2215 14.4077C12.1465 14.3671 12.061 14.4761 11.9736 14.3603C11.912 14.28 11.7585 14.2746 11.6465 14.2331C11.55 14.1963 11.4538 14.156 11.3574 14.1174C11.2611 14.0788 11.1493 14.0586 11.0723 13.9966C10.982 13.9214 10.8857 13.9075 10.7819 13.8755C10.6727 13.8431 10.5936 13.7102 10.486 13.6797C10.3801 13.6511 10.2863 13.6269 10.1957 13.5569C10.1152 13.4946 10.009 13.4695 9.91896 13.4172C9.0706 12.9281 8.22839 12.4271 7.3739 11.9499C7.04881 11.768 6.74615 11.5435 6.41619 11.3807C6.12723 11.2384 5.85802 11.0162 5.51018 11.0078C5.08573 10.704 4.55571 10.6704 4.09658 10.4579C4.02802 10.4266 3.94681 10.4245 3.87162 10.4121C3.66869 10.3803 3.46662 10.3361 3.26245 10.3218C3.06181 10.3078 2.84531 10.3687 2.65994 10.3133C2.48488 10.2621 2.36758 10.498 2.17829 10.3468C2.11121 10.2943 1.9207 10.4137 1.78534 10.4272C1.35059 10.4728 0.944531 10.6142 0.530652 10.7409C0.386033 10.7857 0.28709 10.8601 0.170915 10.928C0.0861377 10.9769 -0.0177906 10.9962 -0.173585 11.049L-0.177597 11.0558Z" fill="black"/>
<mask id="mask1_86_69" style="mask-type:luminance" maskUnits="userSpaceOnUse" x="17" y="22" width="23" height="13">
<path d="M39.1083 24.1193L18.4648 22.6758L17.7455 32.9615L38.389 34.405L39.1083 24.1193Z" fill="white"/>
</mask>
<g mask="url(#mask1_86_69)">
<path d="M18.8048 32.6092C18.6055 32.6008 18.3932 32.6154 18.2046 32.547C18.0948 32.5065 18.0364 32.4655 18.0522 32.3911C18.0751 32.2853 18.081 32.1791 18.0937 32.0732C18.0987 32.0328 18.121 31.9891 18.1049 31.9518C18.0794 31.8936 17.9649 31.835 18.0522 31.7785C18.1226 31.7334 18.2414 31.6993 18.3497 31.6812C18.6656 31.6302 18.8397 31.4777 19.1233 31.3971C19.6871 31.2351 20.2323 31.0563 20.8241 30.9174C21.541 30.7491 22.2769 30.6218 23.0196 30.4946C23.6015 30.3961 24.2043 30.3511 24.7871 30.2589C24.8989 30.2408 25.0314 30.2629 25.1521 30.2559C25.2658 30.2496 25.3806 30.2344 25.4907 30.2154C25.7561 30.1714 26.0534 30.2191 26.288 30.1752C26.5769 30.1218 26.8321 30.1622 27.0992 30.1623C27.2311 30.1619 27.3594 30.119 27.499 30.1539C27.6402 30.1897 27.7825 30.1733 27.9246 30.1308C27.969 30.1175 28.0594 30.1485 28.1283 30.1592C28.1838 30.1677 28.2611 30.1939 28.2915 30.1829C28.6123 30.0627 28.8869 30.2278 29.1952 30.2118C29.5017 30.1967 29.8288 30.1956 30.1198 30.2377C30.3554 30.2713 30.6141 30.255 30.817 30.3041C31.0549 30.3611 31.29 30.3424 31.5239 30.3616C31.5393 30.362 31.5602 30.3588 31.57 30.3627C31.8513 30.5001 32.2557 30.4684 32.5748 30.5616C32.8096 30.6304 33.096 30.64 33.3529 30.6957C33.8283 30.799 34.2981 30.9067 34.7595 31.0268C35.4051 31.1946 35.9731 31.4254 36.5864 31.6203C36.7744 31.6798 36.9296 31.77 37.0802 31.8556C37.3222 31.9929 37.623 32.0957 37.8759 32.2279C38.0015 32.2939 38.043 32.3472 38.0245 32.4296L37.8409 32.5901C37.7995 32.6215 37.7531 32.6519 37.7148 32.6852C37.5945 32.7895 37.4758 32.8939 37.3456 33.0088C37.0072 32.9897 36.7441 32.8861 36.4947 32.7684C36.2079 32.6336 35.9194 32.4997 35.6307 32.3657C35.5983 32.3505 35.5646 32.3326 35.5261 32.3253C35.2161 32.2692 34.9855 32.152 34.7322 32.0513C34.5868 31.9937 34.3875 31.9718 34.2457 31.9126C34.1039 31.8533 33.9303 31.8302 33.7938 31.7846C33.4861 31.6808 33.1481 31.6168 32.8127 31.5592C32.4035 31.488 32.0149 31.3895 31.5845 31.3386C31.2503 31.2991 30.8985 31.2789 30.5839 31.1902C30.4845 31.1626 30.3469 31.1683 30.2255 31.1672C29.803 31.1642 29.3939 31.1364 29.0059 31.0459C28.9709 31.0379 28.9026 31.0372 28.8841 31.0484C28.7935 31.1048 28.6769 31.0632 28.5825 31.0799C28.4583 31.1021 28.3889 30.996 28.2303 31.0624C28.1474 31.0973 27.9616 31.0622 27.8216 31.0588C27.6816 31.0555 27.5422 31.0476 27.4032 31.0506C27.3175 31.0521 27.2341 31.0762 27.1483 31.0778C27.0642 31.0803 26.9788 31.0647 26.8917 31.0626C26.7671 31.0596 26.656 31.0299 26.5142 31.0706C26.3971 31.1047 26.2248 31.0429 26.0814 31.1106C26.0325 31.1338 25.9014 31.1135 25.8096 31.1077C25.5379 31.0904 25.2812 31.1752 25.0046 31.1415C24.8915 31.128 24.8133 31.2801 24.6508 31.1789C24.5157 31.2207 24.3691 31.2163 24.2194 31.2225C24.0835 31.2283 23.9533 31.3 23.8196 31.3012C23.5352 31.3043 23.3012 31.4428 23.0018 31.3842C22.8809 31.4642 22.6921 31.4686 22.532 31.5044C22.3069 31.5549 22.084 31.6153 21.849 31.6474C21.6072 31.6804 21.4388 31.8132 21.1599 31.784C20.8446 31.8863 20.5218 31.9812 20.2206 32.0937C20.0129 32.1707 19.778 32.2164 19.5668 32.2933C19.3125 32.3863 19.0986 32.5 18.8099 32.6093L18.8048 32.6092Z" fill="black"/>
<path d="M26.3346 24.9663C26.3295 25.1906 26.1501 25.3284 26.0917 25.5065C26.0286 25.7001 25.9849 25.8704 25.7699 25.935C25.5337 26.3022 25.1077 26.2742 24.7615 26.3933C24.3266 26.5433 24.315 26.5071 23.9724 26.1701C23.9294 26.1281 23.8695 26.0479 23.8354 26.0561C23.5741 26.1245 23.5428 25.8889 23.4439 25.7617C23.3432 25.6326 23.1439 25.5497 23.1981 25.3306C22.9747 25.1364 23.0533 24.8465 22.9924 24.6053C22.955 24.4559 23.0449 24.2587 23.1162 24.0992C23.3067 23.6757 23.6613 23.4104 24.0536 23.1885C24.3427 23.2529 24.6434 22.9485 24.9354 23.2236C24.9902 23.2752 25.1393 23.2167 25.2086 23.2622C25.2914 23.3175 25.3407 23.3722 25.4182 23.2751C25.6504 23.3939 25.8697 23.5207 26.0085 23.7621C26.1474 24.0017 26.1801 24.2675 26.2397 24.5281C26.2737 24.6738 26.3006 24.8207 26.331 24.9678L26.3346 24.9663Z" fill="black"/>
<path d="M35.3753 24.571C35.5122 24.8388 35.6024 25.1175 35.6648 25.4137C35.7538 25.8356 35.6405 26.4184 35.3985 26.7676C35.1626 27.1066 34.7956 27.1693 34.4488 27.2724C34.3639 27.2983 34.2603 27.2628 34.1954 27.3555C34.142 27.2598 34.0442 27.2671 33.9579 27.2363C33.8457 27.1966 33.7521 27.1193 33.6178 27.117C33.5208 27.1138 33.4237 27.0097 33.3278 27.0154C33.1486 27.0241 33.2689 26.8203 33.1414 26.7972C33.0576 26.7825 32.9803 26.724 32.8997 26.6883C32.8052 26.6481 32.9032 26.4357 32.7124 26.4825C32.6956 26.3946 32.6952 26.2991 32.66 26.2206C32.4778 25.8169 32.5939 25.4466 32.7716 25.0805C32.8232 24.9745 32.8569 24.7964 32.9344 24.7753C33.2176 24.6961 33.342 24.3846 33.6303 24.3341C34.078 24.2539 34.5261 24.0943 34.9387 24.4662C35.0285 24.5468 35.2027 24.5342 35.3787 24.573L35.3753 24.571Z" fill="black"/>
</g>
<mask id="mask2_86_69" style="mask-type:luminance" maskUnits="userSpaceOnUse" x="1" y="38" width="54" height="18">
<path d="M54.4156 42.5206L1.94531 38.8516L1.01241 52.1927L53.4827 55.8618L54.4156 42.5206Z" fill="white"/>
</mask>
<g mask="url(#mask2_86_69)">
<path d="M26.485 41.9825C8.51145 40.0182 -0.575258 44.5119 -2.87192 47.0043L-0.986311 55.4488L25.2297 59.935L55.5405 53.9187C53.3443 50.7584 44.4586 43.9468 26.485 41.9825Z" fill="#EDCBCC"/>
<path d="M52.9815 50.4991C52.6161 50.9193 52.2546 51.3344 51.8949 51.7478C51.4773 51.4728 51.086 51.2261 50.7046 50.9642C50.4311 50.7771 50.1773 50.563 49.9057 50.3742C49.5614 50.1379 49.1339 50.0302 48.8591 49.6856C48.4164 49.6422 48.1917 49.1879 47.7538 49.1024C47.6107 49.0747 47.4854 48.8679 47.3131 48.8028C47.1323 48.7335 46.9366 48.6986 46.7911 48.554C46.6622 48.4248 46.4798 48.3766 46.3315 48.2725C46.183 48.1702 45.9755 48.1274 45.8376 47.9745C45.818 47.9519 45.7883 47.9215 45.7651 47.9234C45.5281 47.9493 45.368 47.7595 45.1803 47.7127C44.9926 47.666 44.95 47.4402 44.752 47.4635C44.5844 47.4836 44.4826 47.3208 44.341 47.2968C44.063 47.2508 43.8707 47.041 43.6131 46.9558C43.5163 46.9243 43.3657 47.0287 43.2996 46.8366C43.2716 46.7568 43.1026 46.7203 42.9943 46.6755C42.8705 46.6244 42.7342 46.6008 42.6146 46.5411C42.4231 46.4464 42.4291 46.4362 42.1911 46.4248C42.2009 46.6643 42.1449 46.8832 42.2079 47.1458C42.2791 47.4426 42.2041 47.7823 42.1538 48.0971C42.1388 48.1845 42.006 48.2371 42.1116 48.3718C42.1457 48.4149 42.0532 48.5499 42.0323 48.6458C41.9773 48.9019 41.9379 49.1609 41.8726 49.4128C41.8606 49.4579 41.7529 49.4805 41.6831 49.5163L41.6516 49.9668C41.4736 50.1613 41.3215 50.3629 41.1353 50.5215C40.8156 50.7945 40.4996 51.089 40.1321 51.2861C39.897 51.4112 39.6734 51.5724 39.4179 51.6606C39.3635 51.6798 39.2761 51.7162 39.2563 51.6953C39.1921 51.6272 39.1464 51.5974 39.0803 51.683C39.0706 51.6947 39.0558 51.7043 39.0445 51.7141C38.8751 51.8597 38.7144 52.0342 38.4669 51.8559C38.3573 52.0057 38.1075 51.8608 38.0881 51.9355C38.0325 52.1492 37.8421 52.0386 37.7712 52.1168C37.6677 52.2316 37.6245 52.0393 37.5579 52.1072C37.4666 52.1981 37.3995 52.1721 37.3225 52.0836C37.3013 52.0591 37.233 52.0491 37.1984 52.0626C36.789 52.2267 36.4099 52.0835 36.04 51.9356C35.9488 51.8991 35.8989 51.8284 35.8028 51.9137C35.7744 51.94 35.6819 51.9477 35.679 51.9386C35.5954 51.7435 35.4313 51.8134 35.2829 51.7854C35.1501 51.7619 35.0502 51.5975 34.8858 51.5966C34.7038 51.5945 34.5914 51.4558 34.4483 51.3786C34.3187 51.3094 34.1448 51.3167 34.021 51.2408C33.7176 51.0533 33.4383 50.8233 33.119 50.6595C33.0978 50.4317 32.7902 50.5817 32.7241 50.3383C32.6817 50.185 32.4278 50.0983 32.2832 49.9661C32.1434 49.8396 32.0097 49.7029 31.8927 49.555C31.7678 49.3942 31.4795 49.42 31.4518 49.1581C31.1351 49.0334 31.0356 48.6603 30.725 48.5236C30.6581 48.4942 30.6222 48.4015 30.564 48.3479C30.4478 48.2389 30.494 48.0087 30.2552 47.9832C30.0972 47.9668 30.1866 47.6742 29.9765 47.6701C29.7332 47.3294 29.4898 46.9905 29.2466 46.6498C29.2112 46.5996 29.1802 46.5125 29.1383 46.5043C28.9077 46.4634 28.9073 46.2405 28.8002 46.1039C28.6572 45.9224 28.5369 45.7212 28.3922 45.5395C28.2004 45.2979 27.9583 45.0918 27.8998 44.7658C27.8971 44.7532 27.8443 44.7495 27.7819 44.731C27.766 44.7812 27.7378 44.8305 27.7343 44.8815C27.6984 45.3442 27.6089 45.8137 27.6495 46.2711C27.7034 46.8903 27.5632 47.5049 27.6218 48.1085C27.6869 48.7958 27.5625 49.4627 27.5611 50.14C27.5603 50.3539 27.4528 50.5764 27.6102 50.7784C27.4195 51.0268 27.6215 51.2991 27.5641 51.564C27.5068 51.827 27.4546 52.1187 27.511 52.3738C27.6345 52.9343 27.459 53.4721 27.4914 54.0456L25.7701 53.9252C25.7807 53.268 25.6975 52.6114 25.7877 51.9527C25.803 51.8352 25.8583 51.7029 25.7387 51.592C25.7204 51.5748 25.7706 51.4898 25.785 51.436C25.8071 51.3474 25.8488 51.2565 25.8407 51.1693C25.8313 51.0519 25.6821 50.9088 25.7832 50.8292C25.9291 50.7156 25.7781 50.6485 25.7912 50.5627C25.8089 50.4366 25.7883 50.3008 25.8249 50.1813C25.882 49.9978 25.7335 49.8194 25.8361 49.6426C25.7127 49.535 25.7948 49.4735 25.8656 49.3723C25.942 49.2663 25.674 49.1025 25.8929 48.9816C25.7251 48.625 25.8794 48.2644 25.8867 47.9076C25.9051 47.113 25.851 46.3186 25.9419 45.5238C25.9592 45.3782 25.8805 45.2383 25.9666 45.0692C26.0199 44.9651 25.9228 44.7849 25.8885 44.6181C25.6487 44.7339 25.5219 44.955 25.4044 45.1679C25.3031 45.3518 25.1597 45.4797 25.0155 45.62C24.9055 45.7255 24.8254 45.8596 24.7138 45.9632C24.5889 46.0801 24.4806 46.2122 24.3609 46.3312C24.2393 46.4518 24.1467 46.5868 23.9659 46.6184C23.6615 47.0764 23.1808 47.3487 22.7957 47.7215C22.6289 47.8814 22.454 48.0301 22.2252 48.115C22.1017 48.1612 22.0158 48.3019 21.896 48.3714C21.4665 48.6208 21.0441 48.8937 20.5885 49.0865C20.1546 49.2719 19.7268 49.4967 19.2409 49.5405C19.1091 49.5525 18.9696 49.5746 18.8493 49.6263C18.5885 49.739 18.3258 49.7772 18.0432 49.7468C17.9502 49.7368 17.8031 49.8167 17.7652 49.7769C17.6417 49.6462 17.5186 49.8127 17.4919 49.7896C17.2469 49.5762 16.9898 49.8129 16.7467 49.7481C16.5557 49.6976 16.3615 49.6168 16.1702 49.6211C15.9682 49.6265 15.8051 49.5302 15.6472 49.4608C15.4929 49.3916 15.2767 49.4225 15.1898 49.2997C15.0625 49.1227 14.8668 49.1887 14.7386 49.1001C14.4147 48.8758 14.0852 48.6565 13.8849 48.2834C13.7659 48.0629 13.6447 47.7979 13.3233 47.7649C13.2671 47.7592 13.1689 47.6462 13.179 47.6027C13.223 47.4041 13.1003 47.2611 12.9768 47.2065C12.7556 47.1079 12.9612 46.7721 12.6786 46.7417C12.6128 46.5691 12.6192 46.3767 12.574 46.2144C12.5144 46.0033 12.5881 45.7591 12.3946 45.5669C12.2887 45.4622 12.3926 45.2414 12.2863 45.0924C12.209 44.9844 12.4413 44.9246 12.3386 44.7742C12.2889 44.7017 12.3634 44.546 12.3787 44.4286C12.3828 44.3953 12.387 44.3602 12.3806 44.3261C12.3491 44.1435 12.3652 43.989 12.449 43.8021C12.5434 43.5911 12.5111 43.32 12.6155 43.0903C12.693 42.9189 12.7499 42.7372 12.8194 42.5528C12.6395 42.4942 12.4505 42.4916 12.2582 42.5861C12.1648 42.6308 12.0493 42.766 11.9488 42.5839C11.8137 42.746 11.5753 42.5383 11.4458 42.7203C11.3514 42.6288 11.2899 42.8756 11.1684 42.7415C11.134 42.702 10.9848 42.7623 10.8878 42.7838C10.7855 42.805 10.6848 42.8545 10.5839 42.8545C10.2322 42.8512 9.90836 43.0814 9.54581 42.98C9.53021 42.9754 9.50582 42.9702 9.49829 42.9767C9.23059 43.264 8.82281 43.101 8.52038 43.278C8.24194 43.1878 8.03777 43.4264 7.77683 43.44C7.52645 43.4543 7.27451 43.5163 7.03087 43.5859C6.52915 43.7295 6.04461 43.9308 5.51229 43.9555C5.43423 43.9589 5.36349 44.0601 5.28248 44.1057C5.22533 44.1388 5.1983 43.9689 5.11499 44.0727C4.95803 44.2687 4.70888 44.2654 4.4993 44.3286C4.24273 44.4062 3.98922 44.5158 3.7394 44.5726C3.48607 44.6292 3.25074 44.7064 3.022 44.816C2.82076 44.9116 2.57043 44.8746 2.39763 45.0695C2.3478 45.1244 2.10836 45.0581 2.0971 45.0927C2.05644 45.219 1.95374 45.2206 1.87211 45.275C1.66428 45.4144 1.44395 45.429 1.18842 45.3652C1.03218 44.8679 0.873287 44.358 0.712875 43.8445C0.962123 43.7452 1.22721 43.647 1.4846 43.5324C2.2166 43.2068 3.01168 43.0413 3.72575 42.6686C4.54419 42.5737 5.28716 42.1923 6.09382 42.0383C6.33398 41.9932 6.58326 41.9186 6.82199 41.8433C7.06976 41.7652 7.32908 41.6736 7.61228 41.6705C7.853 41.6678 8.08904 41.4792 8.33214 41.4679C8.92328 41.4367 9.48894 41.264 10.0638 41.1627C10.7978 41.0354 11.5524 40.9944 12.2675 40.7579C12.5497 40.8449 12.8181 40.6992 13.0982 40.7152C13.2462 40.7238 13.3976 40.6831 13.5446 40.6544C13.9517 40.575 14.3726 40.6257 14.7715 40.5368C15.0229 40.4819 15.2813 40.5548 15.5036 40.4872C15.7457 40.414 15.9667 40.4665 16.1958 40.4525C16.361 40.4428 16.5247 40.403 16.6915 40.3952C16.8441 40.3882 17.0029 40.4435 17.1384 40.3274C17.1478 40.3192 17.1701 40.3296 17.1859 40.3307C17.6229 40.3294 18.0594 40.3334 18.497 40.3234C18.7255 40.3181 18.9546 40.2793 19.1844 40.2812C19.4249 40.2821 19.6772 40.367 19.9017 40.3172C20.4283 40.1984 20.9378 40.3472 21.4548 40.3392C21.6532 40.3354 21.8584 40.4364 22.0491 40.2888C22.0772 40.266 22.1453 40.3043 22.1903 40.2933C22.3777 40.2428 22.5118 40.475 22.7451 40.3516C22.9012 40.2688 23.1511 40.3623 23.3588 40.3768L24.6542 40.4674C24.8619 40.4819 25.0774 40.5359 25.2746 40.4984C25.4253 40.4683 25.4831 40.6527 25.6442 40.5755C25.7593 40.5217 25.9282 40.5353 26.0601 40.571C26.6744 40.7395 27.3206 40.6804 27.9303 40.8132C28.4129 40.9177 28.8945 40.9355 29.3755 40.9868C29.6231 41.0129 29.8341 41.1568 30.0966 41.1469C30.3218 41.1379 30.5698 41.1074 30.7719 41.2772C30.802 41.3023 30.8649 41.2873 30.9125 41.2906C31.041 41.2996 31.1703 41.2962 31.2959 41.3209C31.4268 41.346 31.5514 41.4113 31.6821 41.4381C31.8077 41.4628 31.9376 41.4525 32.0654 41.4702C32.1758 41.485 32.2741 41.5467 32.3964 41.5429C32.5151 41.5406 32.6536 41.5574 32.7519 41.6191C32.9519 41.7427 33.1691 41.7225 33.3807 41.7568C33.5749 41.788 33.7818 41.8131 33.9544 41.8995C34.1595 42.0022 34.3961 41.9569 34.5774 42.0456C34.7895 42.1489 34.9991 42.1352 35.2086 42.1746C35.3553 42.2008 35.4977 42.2638 35.6377 42.3108C35.9712 42.4225 36.3114 42.4905 36.653 42.5622C36.8308 42.5994 37.061 42.596 37.17 42.7062C37.3483 42.8885 37.5881 42.7461 37.7747 42.9112C37.9145 43.036 38.1796 43.0138 38.3862 43.0689C38.6606 43.1412 38.9032 43.3138 39.1931 43.3411C39.3199 43.5269 39.5487 43.366 39.7124 43.503C39.8411 43.6111 40.0473 43.6202 40.2125 43.6866C40.3638 43.7484 40.5006 43.8411 40.6542 43.8961C40.8251 43.9558 41.0133 43.9707 41.1802 44.0372C41.6779 44.2294 42.1707 44.4407 42.6662 44.6399C42.9826 44.7681 43.3173 44.864 43.6175 45.0212C43.923 45.1805 44.2599 45.2695 44.5524 45.4368C44.981 45.6808 45.4599 45.8133 45.8793 46.0637C46.4787 46.4204 47.1313 46.673 47.7343 47.0282C48.0384 47.2069 48.3378 47.4029 48.6632 47.5548C48.9715 47.6984 49.2488 47.907 49.5385 48.0882C50.3502 48.596 51.1997 49.0427 51.9226 49.6822C52.0776 49.8186 52.2628 49.9271 52.4452 50.0248C52.6549 50.1367 52.8268 50.2831 52.978 50.4989L52.9815 50.4991ZM28.6369 42.6967C28.6583 42.7707 28.6581 42.8238 28.6842 42.8557C28.8891 43.0875 29.0367 43.3543 29.1785 43.6277C29.2423 43.7525 29.3704 43.8428 29.456 43.9584C29.5368 44.0684 29.5745 44.2373 29.6783 44.2959C29.8163 44.371 29.7238 44.5555 29.9088 44.6162C30.0351 44.6569 30.1356 44.8637 30.1867 45.0177C30.2453 45.1915 30.425 45.2271 30.4997 45.3721C30.612 45.5868 30.7019 45.8443 30.8795 45.9858C31.2397 46.2727 31.3829 46.755 31.8081 46.9722C31.9246 47.228 32.1466 47.392 32.327 47.5939C32.6928 48.0033 33.1068 48.3559 33.5131 48.7168C33.9393 49.0968 34.3925 49.4451 34.905 49.7038C35.0501 49.7776 35.2095 49.8259 35.3487 49.9081C36.122 50.3584 36.1275 50.3552 36.9136 50.3943C37.0758 50.4021 37.2661 50.3358 37.4085 50.4996C37.4282 50.5222 37.5139 50.4858 37.5692 50.479C37.66 50.4695 37.7597 50.4357 37.8393 50.4608C37.9292 50.4901 37.9733 50.2897 38.0674 50.436C38.1153 50.5101 38.2028 50.3199 38.2745 50.4594C38.3056 50.5199 38.4175 50.5383 38.4926 50.5772C38.6018 50.4823 38.7015 50.3725 38.8217 50.2978C38.9196 50.2374 39.043 50.2177 39.1553 50.1796C39.2115 50.1606 39.279 50.1564 39.3222 50.1205C39.5211 49.9576 39.7677 49.8192 39.8902 49.6102C40.0229 49.3825 40.1631 49.1482 40.2667 48.9061C40.3616 48.6863 40.3382 48.4141 40.4332 48.1943C40.5365 47.9557 40.4777 47.7341 40.4921 47.5034C40.5212 47.0615 40.4085 46.6504 40.3603 46.2261C40.3454 46.0853 40.2758 45.8929 40.1702 45.8343C39.966 45.7192 39.8667 45.5212 39.7413 45.4169C39.4641 45.3339 39.2135 45.3005 39.0058 45.1851C38.4985 44.9038 37.9275 44.8232 37.3876 44.6528C37.0294 44.5393 36.6539 44.4458 36.2993 44.3326C35.9273 44.2146 35.5436 44.1365 35.1715 44.0203C35.0036 43.9679 34.8369 43.8731 34.6481 43.867C34.4487 43.8601 34.2573 43.7901 34.0673 43.7503C33.6786 43.6683 33.2938 43.5812 32.9167 43.4611C32.4773 43.3208 32.0161 43.2885 31.5666 43.1916C31.1292 43.0974 30.6889 42.9446 30.2248 42.9811C30.1625 42.9856 30.0751 42.9971 30.0386 42.9627C29.8357 42.7788 29.5739 42.9055 29.3642 42.8183C29.1441 42.7286 28.9285 42.6747 28.6367 42.7002L28.6369 42.6967ZM25.2249 42.398C25.0602 42.3246 24.9408 42.1358 24.7366 42.2984C24.7066 42.3228 24.6041 42.2467 24.5308 42.2327C24.4453 42.2161 24.3572 42.21 24.2722 42.2129C24.2155 42.2142 24.1198 42.2676 24.1102 42.2528C24.0078 42.0989 23.8501 42.1533 23.7164 42.1422C23.5986 42.1322 23.4867 42.1137 23.3531 42.1787C23.1993 42.2528 23.0027 42.2072 22.844 42.0988C22.211 42.2739 21.5683 41.9283 20.9347 42.1369C20.8609 41.9531 20.7624 42.1478 20.6778 42.1189C20.5688 42.083 20.4164 41.9875 20.3552 42.0274C20.1938 42.1346 20.0365 42.0829 19.8972 42.052C19.7614 42.0212 19.67 42.266 19.5207 42.0734C19.3861 41.8995 19.2433 42.1194 19.094 42.1055C18.7214 42.0723 18.3518 42.0712 17.9746 42.1032C17.5601 42.1379 17.1352 42.2196 16.7133 42.1318C16.661 42.121 16.598 42.1626 16.5393 42.1673C16.2973 42.1876 16.068 42.3059 15.8203 42.2568C15.6581 42.2242 15.0779 42.2243 15.0377 42.3188C14.9617 42.4957 14.7933 42.5263 14.6866 42.6356C14.578 42.7465 14.4993 42.9108 14.4655 43.0658C14.4392 43.1896 14.3931 43.2925 14.3394 43.4019C14.2364 43.6105 14.2063 43.8383 14.1864 44.0721C14.167 44.2989 14.0844 44.5195 14.0562 44.7457C14.0442 44.8422 14.1545 44.9843 14.1152 45.0399C14.005 45.2002 13.9907 45.3283 14.0866 45.4995C14.1292 45.5733 14.0877 45.6871 13.9849 45.74C14.0647 45.8128 14.0556 45.867 13.9825 45.9521C13.9594 45.9788 14.0436 46.1651 14.0943 46.1739C14.2344 46.1943 14.1912 46.3063 14.2352 46.3589C14.4069 46.5601 14.2955 46.9131 14.6322 47.0304C14.7323 47.0657 14.7663 47.2626 14.8547 47.3643C14.9479 47.4734 15.1098 47.3839 15.2405 47.4868C15.4854 47.6773 15.733 47.9051 16.0909 47.8717C16.1318 47.8675 16.1798 47.8903 16.221 47.9073C16.5023 48.0331 16.8082 48.0598 17.1024 48.1264C17.5639 48.2294 18.009 48.0607 18.4553 47.9769C18.8046 47.9129 19.1827 47.8686 19.4829 47.6986C19.9689 47.4248 20.5524 47.3259 20.9504 46.8956C21.1654 46.8559 21.2842 46.6749 21.4463 46.5571C21.5934 46.4507 21.7536 46.3611 21.8957 46.2508C22.0603 46.1225 22.2185 45.985 22.3683 45.8416C22.5938 45.6257 22.8111 45.4021 23.0301 45.1787C23.2149 44.99 23.4046 44.8052 23.5793 44.6087C23.7617 44.4039 23.9222 44.1817 24.1045 43.9786C24.5345 43.494 24.909 42.9702 25.2249 42.398Z" fill="black"/>
</g>
</g>
<path d="M42.6722 2.79025L17.8556 1.0549C10.0792 0.511129 3.33445 6.37429 2.79068 14.1506L1.05533 38.9672C0.511556 46.7436 6.37471 53.4884 14.1511 54.0321L38.9677 55.7675C46.744 56.3113 53.4888 50.4481 54.0326 42.6718L55.7679 17.8552C56.3117 10.0788 50.4485 3.33402 42.6722 2.79025Z" stroke="black" stroke-width="1.76434"/>
</g>
<defs>
<clipPath id="clip0_86_69">
<rect width="57" height="57" fill="white"/>
</clipPath>
</defs>
</svg>
