<svg width="57" height="57" viewBox="0 0 57 57" fill="none" xmlns="http://www.w3.org/2000/svg">
<g clip-path="url(#clip0_86_47)">
<mask id="mask0_86_47" style="mask-type:luminance" maskUnits="userSpaceOnUse" x="1" y="1" width="54" height="54">
<path d="M42.6106 3.67012L17.794 1.93477C10.5037 1.42498 4.18049 6.92168 3.6707 14.212L1.93535 39.0286C1.42556 46.3189 6.92226 52.6421 14.2126 53.1519L39.0292 54.8873C46.3195 55.397 52.6427 49.9003 53.1525 42.61L54.8878 17.7934C55.3976 10.5031 49.9009 4.1799 42.6106 3.67012Z" fill="white"/>
</mask>
<g mask="url(#mask0_86_47)">
<path d="M42.6106 3.67012L17.794 1.93477C10.5037 1.42498 4.18049 6.92168 3.6707 14.212L1.93535 39.0286C1.42556 46.3189 6.92226 52.6421 14.2126 53.1519L39.0292 54.8873C46.3195 55.397 52.6427 49.9003 53.1525 42.61L54.8878 17.7934C55.3976 10.5031 49.9009 4.1799 42.6106 3.67012Z" fill="#FFBB00"/>
<mask id="mask1_86_47" style="mask-type:luminance" maskUnits="userSpaceOnUse" x="17" y="22" width="23" height="13">
<path d="M39.1083 24.1193L18.4648 22.6758L17.7456 32.9615L38.389 34.405L39.1083 24.1193Z" fill="white"/>
</mask>
<g mask="url(#mask1_86_47)">
<path d="M37.8548 29.0566C38.0603 29.078 38.2795 29.0545 38.4731 29.1936C38.5859 29.2757 38.6456 29.3577 38.6283 29.5033C38.6033 29.7103 38.5958 29.9185 38.5813 30.1261C38.5757 30.2053 38.5521 30.2904 38.5682 30.364C38.5937 30.479 38.7111 30.5968 38.6203 30.7055C38.5471 30.7923 38.4241 30.8562 38.3121 30.8891C37.9856 30.9812 37.804 31.2762 37.5104 31.4273C36.9267 31.7313 36.362 32.0686 35.7497 32.3264C35.008 32.6389 34.2472 32.8705 33.4794 33.1015C32.8779 33.2805 32.2555 33.3537 31.6531 33.5203C31.5376 33.5529 31.4012 33.5062 31.2766 33.517C31.1592 33.5265 31.0406 33.5535 30.9268 33.588C30.6524 33.6679 30.3464 33.5669 30.1038 33.6472C29.8051 33.7448 29.5423 33.6592 29.2668 33.6524C29.1308 33.6499 28.9978 33.7308 28.8543 33.6589C28.7091 33.5851 28.5621 33.6137 28.415 33.6936C28.369 33.7187 28.2762 33.6556 28.2052 33.6329C28.1481 33.6148 28.0687 33.5615 28.0372 33.5823C27.7047 33.8102 27.4236 33.4793 27.1054 33.503C26.789 33.5251 26.4516 33.5192 26.1519 33.4292C25.9093 33.3574 25.6423 33.383 25.4336 33.2817C25.1889 33.1638 24.9462 33.1946 24.7052 33.1512C24.6893 33.1501 24.6677 33.1557 24.6576 33.1479C24.3692 32.8713 23.9517 32.9234 23.6237 32.7325C23.3824 32.5918 23.0871 32.5658 22.8228 32.4501C22.3338 32.2355 21.8506 32.0124 21.3762 31.7653C20.7124 31.4199 20.1295 30.9529 19.4994 30.5551C19.3063 30.4338 19.1474 30.2529 18.9931 30.0811C18.7453 29.8056 18.4363 29.5965 18.1772 29.3308C18.0485 29.198 18.0064 29.0924 18.0265 28.9311L18.218 28.6208C18.2611 28.5602 18.3094 28.5017 18.3493 28.4372C18.4748 28.2356 18.5986 28.0337 18.7344 27.8115C19.0832 27.8572 19.3533 28.0671 19.609 28.3043C19.9031 28.576 20.199 28.846 20.495 29.1161C20.5282 29.1467 20.5628 29.1828 20.6024 29.1979C20.9214 29.3157 21.1578 29.5516 21.4177 29.7554C21.567 29.872 21.7723 29.92 21.9178 30.0398C22.0633 30.1596 22.242 30.2093 22.3823 30.3022C22.6983 30.5135 23.0461 30.6475 23.3914 30.7689C23.8125 30.9187 24.2121 31.1217 24.6554 31.2323C24.9996 31.3182 25.3623 31.3666 25.6856 31.5484C25.7878 31.6051 25.9298 31.5973 26.055 31.6025C26.4908 31.6188 26.9125 31.6837 27.3115 31.8708C27.3475 31.8874 27.418 31.8906 27.4372 31.869C27.5314 31.7606 27.6511 31.845 27.7487 31.8147C27.8771 31.7742 27.9473 31.9842 28.1118 31.8578C28.1978 31.7913 28.389 31.8648 28.5333 31.8749C28.6777 31.885 28.8214 31.9039 28.9648 31.9015C29.0533 31.9006 29.1396 31.8554 29.2281 31.8545C29.3149 31.8517 29.4028 31.8844 29.4926 31.8907C29.6211 31.8996 29.7353 31.9607 29.8821 31.8843C30.0034 31.8203 30.1803 31.9458 30.3291 31.8165C30.3799 31.7723 30.5148 31.8153 30.6094 31.829C30.8895 31.8698 31.1554 31.7098 31.4403 31.7828C31.5568 31.8121 31.6394 31.5155 31.8057 31.7181C31.9456 31.6395 32.0968 31.6518 32.2513 31.6432C32.3916 31.6353 32.5268 31.4979 32.6647 31.4987C32.9582 31.4998 33.2014 31.2338 33.5094 31.3562C33.6352 31.2023 33.83 31.1982 33.9956 31.132C34.2285 31.0386 34.4592 30.9256 34.702 30.8683C34.9519 30.8097 35.1273 30.5532 35.4146 30.6175C35.7412 30.4245 36.0755 30.2463 36.3876 30.0329C36.6029 29.887 36.8458 29.8032 37.0647 29.6575C37.3282 29.4814 37.5503 29.2635 37.8496 29.0562L37.8548 29.0566Z" fill="black"/>
<path d="M26.3346 24.9663C26.3295 25.1906 26.1501 25.3284 26.0917 25.5065C26.0286 25.7001 25.9849 25.8704 25.7699 25.935C25.5337 26.3022 25.1077 26.2742 24.7615 26.3933C24.3266 26.5433 24.315 26.5071 23.9724 26.1701C23.9294 26.1281 23.8695 26.0479 23.8354 26.0561C23.5741 26.1245 23.5428 25.8889 23.4439 25.7617C23.3432 25.6326 23.1439 25.5497 23.1981 25.3306C22.9747 25.1364 23.0533 24.8465 22.9924 24.6053C22.955 24.4559 23.0449 24.2587 23.1162 24.0992C23.3067 23.6757 23.6613 23.4104 24.0536 23.1885C24.3427 23.2529 24.6434 22.9485 24.9354 23.2236C24.9902 23.2752 25.1393 23.2167 25.2086 23.2622C25.2914 23.3175 25.3407 23.3722 25.4182 23.2751C25.6504 23.3939 25.8697 23.5207 26.0085 23.7621C26.1474 24.0017 26.1801 24.2675 26.2397 24.5281C26.2737 24.6738 26.3006 24.8207 26.331 24.9678L26.3346 24.9663Z" fill="black"/>
<path d="M35.3753 24.571C35.5122 24.8388 35.6024 25.1175 35.6648 25.4137C35.7538 25.8356 35.6405 26.4184 35.3985 26.7676C35.1626 27.1066 34.7956 27.1693 34.4488 27.2724C34.3639 27.2983 34.2603 27.2628 34.1954 27.3555C34.142 27.2598 34.0442 27.2671 33.9579 27.2363C33.8457 27.1966 33.7521 27.1193 33.6178 27.117C33.5208 27.1138 33.4237 27.0097 33.3278 27.0154C33.1486 27.0241 33.2689 26.8203 33.1414 26.7972C33.0576 26.7825 32.9803 26.724 32.8997 26.6883C32.8052 26.6481 32.9032 26.4357 32.7124 26.4825C32.6956 26.3946 32.6952 26.2991 32.66 26.2206C32.4778 25.8169 32.5939 25.4466 32.7716 25.0805C32.8232 24.9745 32.8569 24.7964 32.9344 24.7753C33.2176 24.6961 33.342 24.3846 33.6303 24.3341C34.078 24.2539 34.5261 24.0943 34.9387 24.4662C35.0285 24.5468 35.2027 24.5342 35.3787 24.573L35.3753 24.571Z" fill="black"/>
</g>
<mask id="mask2_86_47" style="mask-type:luminance" maskUnits="userSpaceOnUse" x="1" y="38" width="54" height="18">
<path d="M54.4156 42.5206L1.9453 38.8516L1.0124 52.1927L53.4827 55.8618L54.4156 42.5206Z" fill="white"/>
</mask>
<g mask="url(#mask2_86_47)">
<path d="M26.485 41.9825C8.51146 40.0182 -0.57525 44.5119 -2.87191 47.0043L-0.986303 55.4488L25.2297 59.935L55.5405 53.9187C53.3443 50.7584 44.4586 43.9468 26.485 41.9825Z" fill="#BDA3FA"/>
<path d="M52.9815 50.4991C52.6161 50.9193 52.2546 51.3344 51.8949 51.7478C51.4773 51.4728 51.086 51.2261 50.7046 50.9642C50.4311 50.7771 50.1773 50.563 49.9057 50.3742C49.5614 50.1379 49.1339 50.0302 48.8591 49.6856C48.4164 49.6422 48.1917 49.1879 47.7538 49.1024C47.6107 49.0747 47.4854 48.8679 47.3131 48.8028C47.1323 48.7335 46.9366 48.6986 46.7911 48.554C46.6622 48.4248 46.4798 48.3766 46.3315 48.2725C46.183 48.1702 45.9755 48.1274 45.8376 47.9745C45.818 47.9519 45.7883 47.9215 45.7651 47.9234C45.5281 47.9493 45.368 47.7595 45.1803 47.7127C44.9926 47.666 44.95 47.4402 44.752 47.4635C44.5844 47.4836 44.4826 47.3208 44.341 47.2968C44.063 47.2508 43.8707 47.041 43.6131 46.9558C43.5163 46.9243 43.3657 47.0287 43.2996 46.8366C43.2716 46.7568 43.1026 46.7203 42.9943 46.6755C42.8705 46.6244 42.7342 46.6008 42.6146 46.5411C42.4231 46.4464 42.4291 46.4362 42.1911 46.4248C42.2009 46.6643 42.1449 46.8832 42.2079 47.1458C42.2791 47.4426 42.2041 47.7823 42.1538 48.0971C42.1388 48.1845 42.006 48.2371 42.1116 48.3718C42.1457 48.4149 42.0532 48.5499 42.0323 48.6458C41.9773 48.9019 41.9379 49.1609 41.8726 49.4128C41.8606 49.4579 41.7529 49.4805 41.6831 49.5163L41.6516 49.9668C41.4736 50.1613 41.3215 50.3629 41.1353 50.5215C40.8156 50.7945 40.4996 51.089 40.1321 51.2861C39.897 51.4112 39.6734 51.5724 39.4179 51.6606C39.3635 51.6798 39.2761 51.7162 39.2563 51.6953C39.1921 51.6272 39.1464 51.5974 39.0803 51.683C39.0706 51.6947 39.0558 51.7043 39.0445 51.7141C38.8751 51.8597 38.7144 52.0342 38.4669 51.8559C38.3573 52.0057 38.1075 51.8608 38.0881 51.9355C38.0325 52.1492 37.8421 52.0386 37.7712 52.1168C37.6677 52.2316 37.6245 52.0393 37.5579 52.1072C37.4666 52.1981 37.3995 52.1721 37.3225 52.0836C37.3013 52.0591 37.233 52.0491 37.1984 52.0626C36.789 52.2267 36.4099 52.0835 36.04 51.9356C35.9488 51.8991 35.8989 51.8284 35.8028 51.9137C35.7744 51.94 35.6819 51.9477 35.679 51.9386C35.5954 51.7435 35.4313 51.8134 35.2829 51.7854C35.1501 51.7619 35.0502 51.5975 34.8858 51.5966C34.7038 51.5945 34.5914 51.4558 34.4483 51.3786C34.3187 51.3094 34.1448 51.3167 34.021 51.2408C33.7176 51.0533 33.4383 50.8233 33.119 50.6595C33.0978 50.4317 32.7902 50.5817 32.7241 50.3383C32.6817 50.185 32.4278 50.0983 32.2832 49.9661C32.1434 49.8396 32.0097 49.7029 31.8927 49.555C31.7678 49.3942 31.4795 49.42 31.4518 49.1581C31.1351 49.0334 31.0356 48.6603 30.725 48.5236C30.6581 48.4942 30.6222 48.4015 30.564 48.3479C30.4478 48.2389 30.494 48.0087 30.2552 47.9832C30.0972 47.9668 30.1866 47.6742 29.9765 47.6701C29.7332 47.3294 29.4898 46.9905 29.2466 46.6498C29.2112 46.5996 29.1802 46.5125 29.1383 46.5043C28.9077 46.4634 28.9073 46.2405 28.8002 46.1039C28.6572 45.9224 28.5369 45.7212 28.3922 45.5395C28.2004 45.2979 27.9583 45.0918 27.8998 44.7658C27.8971 44.7532 27.8443 44.7495 27.7819 44.731C27.766 44.7812 27.7378 44.8305 27.7343 44.8815C27.6984 45.3442 27.6089 45.8137 27.6495 46.2711C27.7034 46.8903 27.5632 47.5049 27.6218 48.1085C27.6869 48.7958 27.5625 49.4627 27.5611 50.14C27.5603 50.3539 27.4528 50.5764 27.6102 50.7784C27.4195 51.0268 27.6215 51.2991 27.5641 51.564C27.5068 51.827 27.4546 52.1187 27.511 52.3738C27.6345 52.9343 27.459 53.4721 27.4914 54.0456L25.7701 53.9252C25.7807 53.268 25.6975 52.6114 25.7877 51.9527C25.803 51.8352 25.8583 51.7029 25.7387 51.592C25.7204 51.5748 25.7706 51.4898 25.785 51.436C25.8071 51.3474 25.8488 51.2565 25.8407 51.1693C25.8313 51.0519 25.6821 50.9088 25.7832 50.8292C25.9291 50.7156 25.7781 50.6485 25.7912 50.5627C25.8089 50.4366 25.7883 50.3008 25.8249 50.1813C25.882 49.9978 25.7335 49.8194 25.8361 49.6426C25.7127 49.535 25.7948 49.4735 25.8656 49.3723C25.942 49.2663 25.674 49.1025 25.8929 48.9816C25.7251 48.625 25.8794 48.2644 25.8867 47.9076C25.9051 47.113 25.851 46.3186 25.9419 45.5238C25.9592 45.3782 25.8805 45.2383 25.9666 45.0692C26.0199 44.9651 25.9228 44.7849 25.8885 44.6181C25.6487 44.7339 25.5219 44.955 25.4044 45.1679C25.3031 45.3518 25.1597 45.4797 25.0155 45.62C24.9055 45.7255 24.8254 45.8596 24.7138 45.9632C24.5889 46.0801 24.4806 46.2122 24.3609 46.3312C24.2393 46.4518 24.1467 46.5868 23.9659 46.6184C23.6615 47.0764 23.1808 47.3487 22.7957 47.7215C22.6289 47.8814 22.454 48.0301 22.2252 48.115C22.1017 48.1612 22.0158 48.3019 21.896 48.3714C21.4665 48.6208 21.0441 48.8937 20.5885 49.0865C20.1546 49.2719 19.7268 49.4967 19.2409 49.5405C19.1091 49.5525 18.9696 49.5746 18.8493 49.6263C18.5885 49.739 18.3258 49.7772 18.0432 49.7468C17.9502 49.7368 17.8031 49.8167 17.7652 49.7769C17.6417 49.6462 17.5186 49.8127 17.4919 49.7896C17.2469 49.5762 16.9898 49.8129 16.7467 49.7481C16.5557 49.6976 16.3615 49.6168 16.1702 49.6211C15.9682 49.6265 15.8051 49.5302 15.6472 49.4608C15.4929 49.3916 15.2767 49.4225 15.1898 49.2997C15.0625 49.1227 14.8668 49.1887 14.7386 49.1001C14.4147 48.8758 14.0852 48.6565 13.8849 48.2834C13.7659 48.0629 13.6447 47.7979 13.3233 47.7649C13.2671 47.7592 13.1689 47.6462 13.179 47.6027C13.223 47.4041 13.1003 47.2611 12.9768 47.2065C12.7556 47.1079 12.9612 46.7721 12.6786 46.7417C12.6128 46.5691 12.6192 46.3767 12.574 46.2144C12.5144 46.0033 12.5881 45.7591 12.3946 45.5669C12.2887 45.4622 12.3926 45.2414 12.2863 45.0924C12.209 44.9844 12.4413 44.9246 12.3386 44.7742C12.2889 44.7017 12.3634 44.546 12.3787 44.4286C12.3828 44.3953 12.387 44.3602 12.3806 44.3261C12.3491 44.1435 12.3652 43.989 12.449 43.8021C12.5434 43.5911 12.5111 43.32 12.6155 43.0903C12.693 42.9189 12.7499 42.7372 12.8194 42.5528C12.6395 42.4942 12.4505 42.4916 12.2582 42.5861C12.1648 42.6308 12.0493 42.766 11.9488 42.5839C11.8137 42.746 11.5753 42.5383 11.4458 42.7203C11.3514 42.6288 11.2899 42.8756 11.1684 42.7415C11.134 42.702 10.9848 42.7623 10.8878 42.7838C10.7855 42.805 10.6848 42.8545 10.5839 42.8545C10.2322 42.8512 9.90837 43.0814 9.54582 42.98C9.53022 42.9754 9.50583 42.9702 9.4983 42.9767C9.2306 43.264 8.82282 43.101 8.52039 43.278C8.24195 43.1878 8.03778 43.4264 7.77684 43.44C7.52646 43.4543 7.27452 43.5163 7.03088 43.5859C6.52916 43.7295 6.04462 43.9308 5.5123 43.9555C5.43424 43.9589 5.3635 44.0601 5.28249 44.1057C5.22534 44.1388 5.19831 43.9689 5.115 44.0727C4.95804 44.2687 4.70889 44.2654 4.49931 44.3286C4.24274 44.4062 3.98923 44.5158 3.73941 44.5726C3.48608 44.6292 3.25075 44.7064 3.02201 44.816C2.82077 44.9116 2.57044 44.8746 2.39764 45.0695C2.34781 45.1244 2.10837 45.0581 2.09711 45.0927C2.05645 45.219 1.95375 45.2206 1.87212 45.275C1.66429 45.4144 1.44396 45.429 1.18843 45.3652C1.03219 44.8679 0.873295 44.358 0.712883 43.8445C0.962131 43.7452 1.22722 43.647 1.48461 43.5324C2.21661 43.2068 3.01169 43.0413 3.72576 42.6686C4.5442 42.5737 5.28717 42.1923 6.09383 42.0383C6.33399 41.9932 6.58327 41.9186 6.822 41.8433C7.06977 41.7652 7.32909 41.6736 7.61229 41.6705C7.85301 41.6678 8.08905 41.4792 8.33215 41.4679C8.92329 41.4367 9.48895 41.264 10.0638 41.1627C10.7978 41.0354 11.5524 40.9944 12.2675 40.7579C12.5497 40.8449 12.8181 40.6992 13.0982 40.7152C13.2462 40.7238 13.3976 40.6831 13.5446 40.6544C13.9517 40.575 14.3726 40.6257 14.7715 40.5368C15.0229 40.4819 15.2813 40.5548 15.5036 40.4872C15.7457 40.414 15.9667 40.4665 16.1958 40.4525C16.361 40.4428 16.5247 40.403 16.6915 40.3952C16.8441 40.3882 17.0029 40.4435 17.1384 40.3274C17.1478 40.3192 17.1701 40.3296 17.1859 40.3307C17.6229 40.3294 18.0594 40.3334 18.497 40.3234C18.7255 40.3181 18.9546 40.2793 19.1844 40.2812C19.4249 40.2821 19.6772 40.367 19.9017 40.3172C20.4283 40.1984 20.9378 40.3472 21.4548 40.3392C21.6532 40.3354 21.8584 40.4364 22.0491 40.2888C22.0772 40.266 22.1453 40.3043 22.1903 40.2933C22.3777 40.2428 22.5118 40.475 22.7451 40.3516C22.9012 40.2688 23.1511 40.3623 23.3588 40.3768L24.6542 40.4674C24.8619 40.4819 25.0774 40.5359 25.2746 40.4984C25.4253 40.4683 25.4831 40.6527 25.6442 40.5755C25.7593 40.5217 25.9282 40.5353 26.0601 40.571C26.6744 40.7395 27.3206 40.6804 27.9303 40.8132C28.4129 40.9177 28.8945 40.9355 29.3755 40.9868C29.6231 41.0129 29.8341 41.1568 30.0966 41.1469C30.3218 41.1379 30.5698 41.1074 30.7719 41.2772C30.802 41.3023 30.8649 41.2873 30.9125 41.2906C31.041 41.2996 31.1703 41.2962 31.2959 41.3209C31.4268 41.346 31.5514 41.4113 31.6821 41.4381C31.8077 41.4628 31.9376 41.4525 32.0654 41.4702C32.1758 41.485 32.2741 41.5467 32.3964 41.5429C32.5151 41.5406 32.6536 41.5574 32.7519 41.6191C32.9519 41.7427 33.1691 41.7225 33.3807 41.7568C33.5749 41.788 33.7818 41.8131 33.9544 41.8995C34.1595 42.0022 34.3961 41.9569 34.5774 42.0456C34.7895 42.1489 34.9991 42.1352 35.2086 42.1746C35.3553 42.2008 35.4977 42.2638 35.6377 42.3108C35.9712 42.4225 36.3114 42.4905 36.653 42.5622C36.8308 42.5994 37.061 42.596 37.17 42.7062C37.3483 42.8885 37.5881 42.7461 37.7747 42.9112C37.9145 43.036 38.1796 43.0138 38.3862 43.0689C38.6606 43.1412 38.9032 43.3138 39.1931 43.3411C39.3199 43.5269 39.5487 43.366 39.7124 43.503C39.8411 43.6111 40.0473 43.6202 40.2125 43.6866C40.3638 43.7484 40.5006 43.8411 40.6542 43.8961C40.8251 43.9558 41.0133 43.9707 41.1802 44.0372C41.6779 44.2294 42.1707 44.4407 42.6662 44.6399C42.9826 44.7681 43.3173 44.864 43.6175 45.0212C43.923 45.1805 44.2599 45.2695 44.5524 45.4368C44.981 45.6808 45.4599 45.8133 45.8793 46.0637C46.4787 46.4204 47.1313 46.673 47.7343 47.0282C48.0384 47.2069 48.3378 47.4029 48.6632 47.5548C48.9715 47.6984 49.2488 47.907 49.5385 48.0882C50.3502 48.596 51.1997 49.0427 51.9226 49.6822C52.0776 49.8186 52.2628 49.9271 52.4452 50.0248C52.6549 50.1367 52.8268 50.2831 52.978 50.4989L52.9815 50.4991ZM28.6369 42.6967C28.6583 42.7707 28.6581 42.8238 28.6842 42.8557C28.8891 43.0875 29.0367 43.3543 29.1785 43.6277C29.2423 43.7525 29.3704 43.8428 29.456 43.9584C29.5368 44.0684 29.5745 44.2373 29.6783 44.2959C29.8163 44.371 29.7238 44.5555 29.9088 44.6162C30.0351 44.6569 30.1356 44.8637 30.1867 45.0177C30.2453 45.1915 30.425 45.2271 30.4997 45.3721C30.612 45.5868 30.7019 45.8443 30.8795 45.9858C31.2397 46.2727 31.3829 46.755 31.8081 46.9722C31.9246 47.228 32.1466 47.392 32.327 47.5939C32.6928 48.0033 33.1068 48.3559 33.5131 48.7168C33.9393 49.0968 34.3925 49.4451 34.905 49.7038C35.0501 49.7776 35.2095 49.8259 35.3487 49.9081C36.122 50.3584 36.1275 50.3552 36.9136 50.3943C37.0758 50.4021 37.2661 50.3358 37.4085 50.4996C37.4282 50.5222 37.5139 50.4858 37.5692 50.479C37.66 50.4695 37.7597 50.4357 37.8393 50.4608C37.9292 50.4901 37.9733 50.2897 38.0674 50.436C38.1153 50.5101 38.2028 50.3199 38.2745 50.4594C38.3056 50.5199 38.4175 50.5383 38.4926 50.5772C38.6018 50.4823 38.7015 50.3725 38.8217 50.2978C38.9196 50.2374 39.043 50.2177 39.1553 50.1796C39.2115 50.1606 39.279 50.1564 39.3222 50.1205C39.5211 49.9576 39.7677 49.8192 39.8902 49.6102C40.0229 49.3825 40.1631 49.1482 40.2667 48.9061C40.3616 48.6863 40.3382 48.4141 40.4332 48.1943C40.5365 47.9557 40.4777 47.7341 40.4921 47.5034C40.5212 47.0615 40.4085 46.6504 40.3603 46.2261C40.3454 46.0853 40.2758 45.8929 40.1702 45.8343C39.966 45.7192 39.8667 45.5212 39.7413 45.4169C39.4641 45.3339 39.2135 45.3005 39.0058 45.1851C38.4985 44.9038 37.9275 44.8232 37.3876 44.6528C37.0294 44.5393 36.6539 44.4458 36.2993 44.3326C35.9273 44.2146 35.5436 44.1365 35.1715 44.0203C35.0036 43.9679 34.8369 43.8731 34.6481 43.867C34.4487 43.8601 34.2573 43.7901 34.0673 43.7503C33.6786 43.6683 33.2938 43.5812 32.9167 43.4611C32.4773 43.3208 32.0161 43.2885 31.5666 43.1916C31.1292 43.0974 30.6889 42.9446 30.2248 42.9811C30.1625 42.9856 30.0751 42.9971 30.0386 42.9627C29.8357 42.7788 29.5739 42.9055 29.3642 42.8183C29.1441 42.7286 28.9285 42.6747 28.6367 42.7002L28.6369 42.6967ZM25.2249 42.398C25.0602 42.3246 24.9408 42.1358 24.7366 42.2984C24.7066 42.3228 24.6041 42.2467 24.5308 42.2327C24.4453 42.2161 24.3572 42.21 24.2722 42.2129C24.2155 42.2142 24.1198 42.2676 24.1102 42.2528C24.0078 42.0989 23.8501 42.1533 23.7164 42.1422C23.5986 42.1322 23.4867 42.1137 23.3531 42.1787C23.1993 42.2528 23.0027 42.2072 22.844 42.0988C22.211 42.2739 21.5683 41.9283 20.9347 42.1369C20.8609 41.9531 20.7624 42.1478 20.6778 42.1189C20.5688 42.083 20.4164 41.9875 20.3552 42.0274C20.1938 42.1346 20.0365 42.0829 19.8972 42.052C19.7614 42.0212 19.67 42.266 19.5207 42.0734C19.3861 41.8995 19.2433 42.1194 19.094 42.1055C18.7214 42.0723 18.3518 42.0712 17.9746 42.1032C17.5601 42.1379 17.1352 42.2196 16.7133 42.1318C16.661 42.121 16.598 42.1626 16.5393 42.1673C16.2973 42.1876 16.068 42.3059 15.8203 42.2568C15.6581 42.2242 15.0779 42.2243 15.0377 42.3188C14.9617 42.4957 14.7933 42.5263 14.6866 42.6356C14.578 42.7465 14.4993 42.9108 14.4655 43.0658C14.4392 43.1896 14.3931 43.2925 14.3394 43.4019C14.2364 43.6105 14.2063 43.8383 14.1864 44.0721C14.167 44.2989 14.0844 44.5195 14.0562 44.7457C14.0442 44.8422 14.1545 44.9843 14.1152 45.0399C14.005 45.2002 13.9907 45.3283 14.0866 45.4995C14.1292 45.5733 14.0877 45.6871 13.9849 45.74C14.0647 45.8128 14.0556 45.867 13.9825 45.9521C13.9594 45.9788 14.0436 46.1651 14.0943 46.1739C14.2344 46.1943 14.1912 46.3063 14.2352 46.3589C14.4069 46.5601 14.2955 46.9131 14.6322 47.0304C14.7323 47.0657 14.7663 47.2626 14.8547 47.3643C14.9479 47.4734 15.1098 47.3839 15.2405 47.4868C15.4854 47.6773 15.733 47.9051 16.0909 47.8717C16.1318 47.8675 16.1798 47.8903 16.221 47.9073C16.5023 48.0331 16.8082 48.0598 17.1024 48.1264C17.5639 48.2294 18.009 48.0607 18.4553 47.9769C18.8046 47.9129 19.1827 47.8686 19.4829 47.6986C19.9689 47.4248 20.5524 47.3259 20.9504 46.8956C21.1654 46.8559 21.2842 46.6749 21.4463 46.5571C21.5934 46.4507 21.7536 46.3611 21.8957 46.2508C22.0603 46.1225 22.2185 45.985 22.3683 45.8416C22.5938 45.6257 22.8111 45.4021 23.0301 45.1787C23.2149 44.99 23.4046 44.8052 23.5793 44.6087C23.7617 44.4039 23.9222 44.1817 24.1045 43.9786C24.5345 43.494 24.909 42.9702 25.2249 42.398Z" fill="black"/>
</g>
</g>
<path d="M42.6722 2.79025L17.8556 1.0549C10.0792 0.511129 3.33445 6.37429 2.79068 14.1506L1.05533 38.9672C0.511556 46.7436 6.37471 53.4884 14.1511 54.0321L38.9677 55.7675C46.744 56.3113 53.4888 50.4481 54.0326 42.6718L55.7679 17.8552C56.3117 10.0788 50.4485 3.33402 42.6722 2.79025Z" stroke="black" stroke-width="1.76434"/>
</g>
<defs>
<clipPath id="clip0_86_47">
<rect width="57" height="57" fill="white"/>
</clipPath>
</defs>
</svg>
