<svg width="58" height="58" viewBox="0 0 58 58" fill="none" xmlns="http://www.w3.org/2000/svg">
<g clip-path="url(#clip0_1_34)">
<mask id="mask0_1_34" style="mask-type:luminance" maskUnits="userSpaceOnUse" x="2" y="2" width="54" height="54">
<path d="M42.8934 4.16279L18.0768 2.42745C10.7865 1.91766 4.46329 7.41436 3.9535 14.7047L2.21816 39.5213C1.70837 46.8116 7.20507 53.1348 14.4954 53.6446L39.312 55.3799C46.6023 55.8897 52.9255 50.393 53.4353 43.1027L55.1706 18.2861C55.6804 10.9958 50.1837 4.67258 42.8934 4.16279Z" fill="white"/>
</mask>
<g mask="url(#mask0_1_34)">
<path d="M42.8934 4.16279L18.0768 2.42745C10.7865 1.91766 4.46329 7.41436 3.9535 14.7047L2.21816 39.5213C1.70837 46.8116 7.20507 53.1348 14.4954 53.6446L39.312 55.3799C46.6023 55.8897 52.9255 50.393 53.4353 43.1027L55.1706 18.2861C55.6804 10.9958 50.1837 4.67258 42.8934 4.16279Z" fill="#FFBB00"/>
<path d="M9.25617 12.2429C6.46669 9.64255 2.21642 9.21563 0.439969 9.32723L-0.888107 -4.56104L36.8383 -2.80728L61.069 2.24753C61.2019 7.09112 60.975 16.7438 59.0038 16.606C56.5397 16.4337 50.7771 12.8471 47.8995 13.5303C42.0459 16.3045 36.09 18.0104 32.2512 14.7353C28.4123 11.4601 22.7925 10.8902 19.1124 12.9321C15.4323 14.974 12.743 15.4935 9.25617 12.2429Z" fill="#F7841F"/>
<path d="M0.105209 11.5485C0.161147 11.1279 0.185307 10.8077 0.26276 10.4842C0.337468 10.1746 0.404238 9.85203 0.462946 9.51833C0.778005 9.46431 1.07319 9.31516 1.39312 9.24202C1.51715 9.21355 1.63204 9.2145 1.75169 9.19811C1.86945 9.18335 1.98783 9.15979 2.10154 9.12707C2.37596 9.04721 2.6556 9.09507 2.93099 9.07719C3.11048 9.06498 3.32539 8.9509 3.46556 9.04559C3.63619 9.16011 3.785 8.97949 3.95702 9.0994C4.09355 9.19562 4.317 9.16172 4.49996 9.20104C5.16225 9.34109 5.7969 9.57295 6.42717 9.81688C6.56852 10.0213 6.78025 10.0538 7.00513 10.0501C7.11946 10.2615 7.37524 10.2458 7.53584 10.3772C7.7951 10.5899 8.08418 10.7304 8.4045 10.8288C8.5119 10.8611 8.59002 10.9833 8.69369 11.0436C8.91122 11.1703 9.16199 11.2515 9.35267 11.4081C9.55505 11.5743 9.75952 11.7106 10.0023 11.8054C10.1382 11.8592 10.267 11.9407 10.3903 12.0236C10.6759 12.2134 10.9823 12.3586 11.2943 12.5007C11.5874 12.6344 11.8466 12.847 12.1573 12.9572C12.3402 13.023 12.521 13.0923 12.7084 13.1443C12.9131 13.2011 13.1428 13.2047 13.3272 13.299C13.4434 13.3584 13.5485 13.3976 13.6717 13.4062C14.0712 13.4341 14.4708 13.4621 14.8703 13.49C15.0915 13.3357 15.3634 13.3936 15.6077 13.3152C16.0038 13.189 16.4055 13.0845 16.7839 12.9093C17.0417 12.7894 17.3386 12.7412 17.545 12.5221C17.9151 12.5144 18.1751 12.1859 18.5638 12.1919C18.7211 12.194 18.884 12.0392 19.0375 11.9438C19.2075 11.839 19.3665 11.7157 19.535 11.6072C19.5702 11.5849 19.6396 11.6039 19.6627 11.5772C19.7934 11.4272 19.9976 11.6183 20.1438 11.4499C20.2303 11.3516 20.4227 11.3562 20.5465 11.28C20.8073 11.1178 21.1113 11.0948 21.3861 10.9849C21.7209 10.8509 22.075 10.7943 22.4287 10.7448C22.852 10.686 23.2705 10.5684 23.706 10.6378C23.9808 10.4519 24.2881 10.6608 24.5709 10.5621C24.8683 10.4573 25.1725 10.5334 25.4612 10.5783C25.8932 10.6475 26.3391 10.6698 26.7546 10.7731C27.3456 10.9206 27.929 11.1259 28.5097 11.3204C28.8657 11.439 29.199 11.6055 29.549 11.7344C29.8922 11.8592 30.1853 12.1202 30.5236 12.2641C30.9788 12.4569 31.3172 12.8538 31.8115 12.9679C32.0324 13.1991 32.3057 13.3615 32.5714 13.534C32.8843 13.738 33.1812 13.9692 33.4941 14.1733C33.8798 14.4249 34.2691 14.675 34.6688 14.9028C35.2386 15.2274 35.8298 15.4986 36.464 15.6862C36.8937 15.8136 37.3166 15.9369 37.7641 15.9628C37.9314 15.9728 38.1047 15.9478 38.2507 16.0853C38.2955 16.1274 38.4173 16.1306 38.483 16.1016C38.6 16.0478 38.7004 15.9523 38.7927 16.125C39.0232 16.0155 39.2755 16.1004 39.5128 16.0445C39.556 16.0351 39.5999 15.9886 39.6363 15.9983C40.0176 16.0851 40.3556 15.9301 40.7044 15.8236C40.8346 15.7832 41.1967 15.7908 41.3306 15.8231C41.3601 15.8305 41.4163 15.8362 41.4223 15.826C41.5525 15.5327 41.8594 15.6461 42.0704 15.5371C42.0749 15.4737 42.0794 15.4086 42.0838 15.3452C42.1113 15.3312 42.14 15.3014 42.1627 15.3048C42.4128 15.3452 42.5907 15.2038 42.7981 15.0963C43.299 14.8377 43.8148 14.5943 44.3476 14.4105C44.5434 14.3428 44.6425 14.1641 44.8555 14.1277C45.0524 14.0954 45.2821 14.0726 45.431 13.8902C45.7482 13.8823 45.969 13.6325 46.2584 13.5661C46.3573 13.5429 46.4664 13.3737 46.5772 13.56C46.5787 13.5637 46.6497 13.535 46.678 13.5105C46.8965 13.3188 47.1819 13.3353 47.4367 13.2576C47.8741 13.1237 48.3399 13.1899 48.7783 13.0666C48.8217 13.0538 48.8735 13.0715 48.921 13.0748C49.192 13.0938 49.4706 13.1575 49.735 13.1194C49.9817 13.0818 50.2006 13.1643 50.4228 13.1976C50.6626 13.2338 50.8977 13.3121 51.1457 13.3312C51.3902 13.3501 51.6087 13.5139 51.868 13.4737C52.2999 13.7214 52.8092 13.773 53.2445 13.998C53.4425 14.1002 53.6697 14.0118 53.8563 14.1769C53.9297 14.2404 54.1114 14.2461 54.2286 14.3162C54.48 14.4646 54.7666 14.4369 55.0191 14.4687C55.1934 14.6578 55.2361 14.8553 55.2201 15.0841C55.1997 15.3763 55.1549 15.6632 55.2398 15.9663C55.3132 16.2314 55.1464 16.2905 54.845 16.25C54.5015 16.2047 54.1834 16.0746 53.8463 16.0139C53.5861 15.9674 53.3171 15.9185 53.0699 15.7862C52.9148 15.7029 52.7167 15.7032 52.5459 15.6417C52.3371 15.567 52.1372 15.4663 51.9348 15.3761C51.8798 15.3528 51.8266 15.3049 51.7735 15.3047C51.5205 15.3065 51.2845 15.2422 51.0519 15.1534C50.263 14.8507 49.428 14.8542 48.6033 14.7859C48.4801 14.7773 48.3915 14.8047 48.3076 14.8908C48.2867 14.9123 48.2183 14.9288 48.2085 14.9175C48.0622 14.7339 47.9225 14.8851 47.7904 14.9272C47.3817 15.056 46.9454 15.098 46.5659 15.3155C46.4732 15.1233 46.372 15.3568 46.2551 15.3079C46.0387 15.2168 45.9668 15.4098 45.8876 15.5564C45.7638 15.6061 45.554 15.4199 45.517 15.6967C45.5161 15.709 45.4919 15.7268 45.4813 15.7261C45.0669 15.6582 44.8297 16.0148 44.4986 16.1473C44.2656 16.2406 43.999 16.3104 43.8296 16.532C43.8141 16.5522 43.77 16.5756 43.7511 16.5672C43.4982 16.4664 43.3383 16.6781 43.1639 16.7702C42.9564 16.8795 42.773 16.9976 42.5238 16.9695C42.2413 16.9374 42.0872 17.1689 41.8765 17.324C41.8273 17.294 41.7765 17.2622 41.7002 17.2144C41.64 17.2668 41.5706 17.3486 41.4821 17.399C41.3532 17.4731 41.2265 17.5651 41.0602 17.5393C40.9972 17.5296 40.9003 17.4998 40.8734 17.5298C40.6153 17.8071 40.249 17.6064 39.9581 17.7452C39.7624 17.8376 39.5393 17.8167 39.3223 17.8086C39.1424 17.8013 38.9566 17.7017 38.7744 17.8534C38.6748 17.9367 38.5943 17.6463 38.4086 17.7978C38.315 17.8726 38.1031 17.8171 37.9488 17.7975C37.8155 17.7811 37.659 17.8444 37.5508 17.6971C37.5315 17.6693 37.4614 17.6608 37.42 17.6703C37.2817 17.7013 37.1636 17.7709 37.0112 17.6488C36.904 17.5635 36.7147 17.6652 36.5743 17.5227C36.5066 17.4543 36.329 17.4897 36.2002 17.486C36.0872 17.4834 35.9814 17.4777 35.9076 17.37C35.8964 17.3533 35.8315 17.3717 35.8202 17.355C35.6779 17.1399 35.4056 17.3154 35.2251 17.1401C35.0991 17.0199 34.8913 16.9558 34.7126 16.8814C34.4428 16.7688 34.129 16.7292 33.9075 16.5068C33.6696 16.5202 33.6236 16.1668 33.3613 16.2245C33.3362 16.2298 33.2895 16.2142 33.2802 16.1958C33.1509 15.9197 32.8254 15.8952 32.6332 15.6854C32.4589 15.4964 32.1823 15.4045 31.9591 15.258C31.697 15.0858 31.4412 14.8999 31.185 14.7193C31.1597 14.7016 31.1466 14.6618 31.1209 14.6494C30.7565 14.4735 30.4337 14.2334 30.0992 14.0084C29.7833 13.7971 29.4371 13.6137 29.0588 13.5094C28.9199 13.4714 28.7959 13.3743 28.6705 13.2948C28.251 13.0214 27.7371 12.9854 27.3045 12.7483C27.1307 12.653 26.8952 12.7586 26.7412 12.5833C26.3048 12.551 25.891 12.3735 25.4441 12.39C25.2987 12.3958 25.1224 12.4383 25.0043 12.2814C24.9914 12.2629 24.9338 12.2518 24.917 12.2647C24.7716 12.3713 24.6366 12.4043 24.5158 12.2349C24.403 12.3809 24.2507 12.2836 24.1166 12.3043C23.5816 12.3924 23.0405 12.4165 22.5044 12.5205C21.9001 12.6374 21.3447 12.8922 20.7517 13.0258C20.6007 13.0595 20.5337 13.2847 20.3385 13.1932C20.0219 13.3957 19.6605 13.5049 19.3222 13.6634C18.7443 13.936 18.2073 14.3053 17.5715 14.4447C17.2515 14.7213 16.8157 14.7049 16.4542 14.8919C16.1571 15.0444 15.8007 15.0814 15.4709 15.1698C15.2672 15.2245 15.0654 15.1768 14.8613 15.2121C14.6841 15.2421 14.501 15.1798 14.3144 15.2676C14.2212 15.3106 14.0738 15.2436 13.9536 15.2176C13.8507 15.1962 13.7425 15.1763 13.6483 15.1325C13.5284 15.0764 13.4291 15.2569 13.2828 15.1229C13.1997 15.0463 13.0007 15.1102 12.8635 15.0741C12.7366 15.0423 12.6219 14.9635 12.5043 14.9004C12.4293 14.8598 12.3438 14.9688 12.2564 14.853C12.1948 14.7727 12.0413 14.7673 11.9293 14.7258C11.8328 14.689 11.7366 14.6487 11.6402 14.6101C11.5439 14.5715 11.4321 14.5513 11.3551 14.4893C11.2648 14.4141 11.1685 14.4002 11.0647 14.3682C10.9555 14.3358 10.8764 14.2029 10.7688 14.1724C10.6629 14.1438 10.5691 14.1196 10.4785 14.0496C10.398 13.9873 10.2918 13.9622 10.2018 13.9099C9.35341 13.4208 8.5112 12.9198 7.65671 12.4426C7.33162 12.2607 7.02896 12.0362 6.699 11.8734C6.41004 11.7311 6.14083 11.5089 5.79299 11.5005C5.36854 11.1967 4.83852 11.1631 4.37939 10.9506C4.31083 10.9193 4.22962 10.9172 4.15443 10.9048C3.9515 10.873 3.74943 10.8288 3.54526 10.8145C3.34462 10.8005 3.12812 10.8614 2.94275 10.806C2.76769 10.7548 2.65039 10.9907 2.4611 10.8395C2.39402 10.787 2.20351 10.9064 2.06815 10.9199C1.6334 10.9655 1.22734 11.1069 0.813458 11.2336C0.668839 11.2784 0.569896 11.3528 0.453721 11.4207C0.368944 11.4696 0.265016 11.4889 0.109221 11.5417L0.105209 11.5485Z" fill="black"/>
<mask id="mask1_1_34" style="mask-type:luminance" maskUnits="userSpaceOnUse" x="18" y="23" width="22" height="12">
<path d="M39.3911 24.612L18.7476 23.1685L18.0283 33.4541L38.6718 34.8977L39.3911 24.612Z" fill="white"/>
</mask>
<g mask="url(#mask1_1_34)">
<path d="M38.1376 29.5493C38.3431 29.5707 38.5623 29.5472 38.7559 29.6863C38.8687 29.7684 38.9284 29.8504 38.9111 29.996C38.8861 30.203 38.8786 30.4112 38.8641 30.6188C38.8585 30.698 38.8349 30.7831 38.851 30.8567C38.8765 30.9717 38.9939 31.0895 38.9031 31.1982C38.8299 31.285 38.7069 31.3489 38.5949 31.3818C38.2684 31.4739 38.0868 31.7689 37.7932 31.92C37.2095 32.224 36.6448 32.5613 36.0325 32.8191C35.2908 33.1316 34.53 33.3632 33.7622 33.5942C33.1607 33.7732 32.5383 33.8464 31.9359 34.013C31.8204 34.0456 31.684 33.9989 31.5594 34.0097C31.442 34.0192 31.3234 34.0462 31.2096 34.0807C30.9352 34.1606 30.6292 34.0596 30.3866 34.1399C30.0879 34.2375 29.8251 34.1519 29.5496 34.1451C29.4136 34.1426 29.2806 34.2235 29.1371 34.1516C28.9919 34.0778 28.8449 34.1064 28.6978 34.1863C28.6518 34.2114 28.559 34.1483 28.488 34.1256C28.4309 34.1075 28.3515 34.0542 28.32 34.075C27.9875 34.3029 27.7064 33.972 27.3882 33.9957C27.0718 34.0178 26.7344 34.0119 26.4347 33.9219C26.1921 33.8501 25.9251 33.8757 25.7164 33.7744C25.4717 33.6565 25.229 33.6873 24.988 33.6439C24.9721 33.6428 24.9505 33.6484 24.9404 33.6406C24.652 33.364 24.2345 33.4161 23.9065 33.2252C23.6652 33.0845 23.3699 33.0585 23.1056 32.9428C22.6166 32.7282 22.1334 32.5051 21.659 32.258C20.9952 31.9126 20.4123 31.4456 19.7822 31.0478C19.5891 30.9265 19.4302 30.7456 19.2759 30.5738C19.0281 30.2983 18.7191 30.0892 18.46 29.8235C18.3313 29.6907 18.2892 29.5851 18.3093 29.4238L18.5008 29.1135C18.5439 29.0529 18.5922 28.9944 18.6321 28.9299C18.7576 28.7283 18.8814 28.5264 19.0172 28.3042C19.366 28.3499 19.6361 28.5598 19.8918 28.797C20.1859 29.0687 20.4818 29.3387 20.7778 29.6088C20.811 29.6394 20.8456 29.6755 20.8852 29.6906C21.2042 29.8084 21.4406 30.0443 21.7005 30.2481C21.8498 30.3647 22.0551 30.4127 22.2006 30.5325C22.3461 30.6523 22.5248 30.702 22.6651 30.7949C22.9811 31.0062 23.3289 31.1402 23.6742 31.2616C24.0953 31.4114 24.4949 31.6144 24.9382 31.725C25.2824 31.8109 25.6451 31.8593 25.9684 32.0411C26.0706 32.0978 26.2126 32.09 26.3378 32.0952C26.7736 32.1115 27.1953 32.1764 27.5943 32.3635C27.6303 32.3801 27.7008 32.3833 27.72 32.3617C27.8142 32.2533 27.9339 32.3377 28.0315 32.3074C28.1599 32.2669 28.2301 32.4769 28.3946 32.3505C28.4806 32.284 28.6718 32.3575 28.8161 32.3676C28.9605 32.3777 29.1042 32.3966 29.2476 32.3942C29.3361 32.3933 29.4224 32.3481 29.5109 32.3472C29.5977 32.3444 29.6856 32.3771 29.7754 32.3834C29.9039 32.3923 30.0181 32.4534 30.1649 32.377C30.2862 32.313 30.4631 32.4385 30.6119 32.3092C30.6627 32.265 30.7976 32.308 30.8922 32.3217C31.1723 32.3625 31.4382 32.2025 31.7231 32.2755C31.8396 32.3048 31.9222 32.0082 32.0885 32.2108C32.2284 32.1322 32.3796 32.1445 32.5341 32.1359C32.6744 32.128 32.8096 31.9906 32.9475 31.9914C33.241 31.9925 33.4842 31.7265 33.7922 31.8489C33.918 31.695 34.1128 31.6909 34.2784 31.6247C34.5113 31.5313 34.742 31.4183 34.9848 31.361C35.2347 31.3024 35.4101 31.0459 35.6974 31.1102C36.024 30.9172 36.3583 30.739 36.6704 30.5256C36.8857 30.3797 37.1286 30.2959 37.3475 30.1502C37.611 29.9741 37.8331 29.7562 38.1324 29.5489L38.1376 29.5493Z" fill="black"/>
<path d="M26.6174 25.459C26.6123 25.6833 26.4329 25.8211 26.3745 25.9992C26.3114 26.1928 26.2677 26.3631 26.0527 26.4277C25.8165 26.7949 25.3905 26.7669 25.0443 26.886C24.6094 27.036 24.5978 26.9998 24.2552 26.6628C24.2122 26.6208 24.1523 26.5406 24.1182 26.5488C23.8569 26.6172 23.8256 26.3816 23.7267 26.2544C23.626 26.1253 23.4267 26.0424 23.4809 25.8233C23.2575 25.6291 23.3361 25.3392 23.2752 25.098C23.2378 24.9486 23.3277 24.7514 23.399 24.5919C23.5895 24.1684 23.9441 23.9031 24.3364 23.6812C24.6255 23.7456 24.9262 23.4412 25.2182 23.7163C25.273 23.7679 25.4221 23.7094 25.4914 23.7549C25.5742 23.8102 25.6235 23.8649 25.701 23.7678C25.9332 23.8866 26.1525 24.0134 26.2913 24.2548C26.4302 24.4944 26.4629 24.7602 26.5225 25.0208C26.5565 25.1665 26.5834 25.3134 26.6138 25.4605L26.6174 25.459Z" fill="black"/>
<path d="M35.6581 25.0637C35.795 25.3315 35.8852 25.6102 35.9476 25.9064C36.0366 26.3283 35.9233 26.9111 35.6813 27.2603C35.4454 27.5993 35.0784 27.662 34.7316 27.7651C34.6467 27.791 34.5431 27.7555 34.4782 27.8482C34.4248 27.7525 34.327 27.7598 34.2407 27.729C34.1285 27.6893 34.0349 27.612 33.9006 27.6097C33.8036 27.6065 33.7065 27.5024 33.6106 27.5081C33.4314 27.5168 33.5517 27.313 33.4242 27.2899C33.3404 27.2752 33.2631 27.2167 33.1825 27.181C33.088 27.1408 33.186 26.9284 32.9952 26.9752C32.9784 26.8873 32.978 26.7918 32.9428 26.7133C32.7606 26.3096 32.8767 25.9393 33.0544 25.5732C33.106 25.4672 33.1397 25.2891 33.2172 25.268C33.5004 25.1888 33.6248 24.8773 33.9131 24.8268C34.3608 24.7466 34.8089 24.587 35.2215 24.9589C35.3113 25.0395 35.4855 25.0269 35.6615 25.0657L35.6581 25.0637Z" fill="black"/>
</g>
<mask id="mask2_1_34" style="mask-type:luminance" maskUnits="userSpaceOnUse" x="1" y="39" width="54" height="18">
<path d="M54.6984 43.0133L2.22812 39.3442L1.29522 52.6854L53.7655 56.3544L54.6984 43.0133Z" fill="white"/>
</mask>
<g mask="url(#mask2_1_34)">
<path d="M26.7678 42.4752C8.79426 40.5109 -0.292451 45.0046 -2.58911 47.497L-0.703504 55.9415L25.5125 60.4277L55.8233 54.4114C53.6271 51.2511 44.7414 44.4395 26.7678 42.4752Z" fill="#BDA3FA"/>
<path d="M53.2643 50.9918C52.8989 51.412 52.5374 51.8271 52.1777 52.2405C51.7601 51.9655 51.3688 51.7188 50.9874 51.4569C50.7139 51.2698 50.4601 51.0557 50.1885 50.8669C49.8442 50.6306 49.4167 50.5229 49.1419 50.1783C48.6992 50.1349 48.4745 49.6806 48.0366 49.5951C47.8935 49.5674 47.7682 49.3606 47.5959 49.2955C47.4151 49.2262 47.2194 49.1913 47.0739 49.0467C46.945 48.9175 46.7626 48.8693 46.6143 48.7652C46.4658 48.6629 46.2583 48.6201 46.1204 48.4672C46.1008 48.4446 46.0711 48.4142 46.0479 48.4161C45.8109 48.442 45.6508 48.2522 45.4631 48.2054C45.2754 48.1587 45.2328 47.9329 45.0348 47.9562C44.8672 47.9763 44.7654 47.8135 44.6238 47.7895C44.3458 47.7435 44.1535 47.5337 43.8959 47.4485C43.7991 47.417 43.6485 47.5214 43.5824 47.3293C43.5544 47.2495 43.3854 47.213 43.2771 47.1682C43.1533 47.1171 43.017 47.0935 42.8974 47.0338C42.7059 46.9391 42.7119 46.9289 42.4739 46.9175C42.4837 47.157 42.4277 47.3759 42.4907 47.6385C42.5619 47.9353 42.4869 48.275 42.4366 48.5898C42.4216 48.6772 42.2888 48.7298 42.3944 48.8645C42.4285 48.9076 42.336 49.0426 42.3151 49.1385C42.2601 49.3946 42.2207 49.6536 42.1554 49.9055C42.1434 49.9506 42.0357 49.9732 41.9659 50.009L41.9344 50.4595C41.7564 50.654 41.6043 50.8556 41.4181 51.0142C41.0984 51.2872 40.7824 51.5817 40.4149 51.7788C40.1798 51.9039 39.9562 52.0651 39.7007 52.1533C39.6463 52.1725 39.5589 52.2089 39.5391 52.188C39.4749 52.1199 39.4292 52.0901 39.3631 52.1757C39.3534 52.1874 39.3386 52.197 39.3273 52.2068C39.1579 52.3524 38.9972 52.5269 38.7497 52.3486C38.6401 52.4984 38.3903 52.3535 38.3709 52.4282C38.3153 52.6419 38.1249 52.5313 38.054 52.6095C37.9505 52.7243 37.9073 52.532 37.8407 52.5999C37.7494 52.6908 37.6823 52.6648 37.6053 52.5763C37.5841 52.5518 37.5158 52.5418 37.4812 52.5553C37.0718 52.7194 36.6927 52.5762 36.3228 52.4283C36.2316 52.3918 36.1817 52.3211 36.0856 52.4064C36.0572 52.4327 35.9647 52.4404 35.9618 52.4313C35.8782 52.2362 35.7141 52.3061 35.5657 52.2781C35.4329 52.2546 35.333 52.0902 35.1686 52.0893C34.9866 52.0872 34.8742 51.9485 34.7311 51.8713C34.6015 51.8021 34.4276 51.8094 34.3038 51.7335C34.0004 51.546 33.7211 51.316 33.4018 51.1522C33.3806 50.9244 33.073 51.0744 33.0069 50.831C32.9645 50.6777 32.7106 50.591 32.566 50.4588C32.4262 50.3323 32.2925 50.1956 32.1755 50.0477C32.0506 49.8869 31.7623 49.9127 31.7346 49.6508C31.4179 49.5261 31.3184 49.153 31.0078 49.0163C30.9409 48.9869 30.905 48.8942 30.8468 48.8406C30.7306 48.7316 30.7768 48.5014 30.538 48.4759C30.38 48.4595 30.4694 48.1669 30.2593 48.1628C30.016 47.8221 29.7726 47.4832 29.5294 47.1425C29.494 47.0923 29.463 47.0052 29.4211 46.997C29.1905 46.9561 29.1901 46.7332 29.083 46.5966C28.94 46.4151 28.8197 46.2139 28.675 46.0322C28.4832 45.7906 28.2411 45.5845 28.1826 45.2585C28.1799 45.2459 28.1271 45.2422 28.0647 45.2237C28.0488 45.2739 28.0206 45.3232 28.0171 45.3742C27.9812 45.8369 27.8917 46.3064 27.9323 46.7638C27.9862 47.383 27.846 47.9976 27.9046 48.6012C27.9697 49.2885 27.8453 49.9554 27.8439 50.6327C27.8431 50.8466 27.7356 51.0691 27.893 51.2711C27.7023 51.5195 27.9043 51.7918 27.8469 52.0567C27.7896 52.3197 27.7374 52.6114 27.7938 52.8665C27.9173 53.427 27.7418 53.9648 27.7742 54.5383L26.0529 54.4179C26.0635 53.7607 25.9803 53.1041 26.0705 52.4454C26.0858 52.3279 26.1411 52.1956 26.0215 52.0847C26.0032 52.0675 26.0534 51.9825 26.0678 51.9287C26.0899 51.8401 26.1316 51.7492 26.1235 51.662C26.1141 51.5446 25.9649 51.4015 26.066 51.3219C26.2119 51.2083 26.0609 51.1412 26.074 51.0554C26.0917 50.9293 26.0711 50.7935 26.1077 50.674C26.1648 50.4905 26.0163 50.3121 26.1189 50.1353C25.9955 50.0277 26.0776 49.9662 26.1484 49.865C26.2248 49.759 25.9568 49.5952 26.1757 49.4743C26.0079 49.1177 26.1622 48.7571 26.1695 48.4003C26.1879 47.6057 26.1338 46.8113 26.2247 46.0165C26.242 45.8709 26.1633 45.731 26.2494 45.5619C26.3027 45.4578 26.2056 45.2776 26.1713 45.1108C25.9315 45.2266 25.8047 45.4477 25.6872 45.6606C25.5859 45.8445 25.4425 45.9724 25.2983 46.1127C25.1883 46.2182 25.1082 46.3523 24.9966 46.4559C24.8717 46.5728 24.7634 46.7049 24.6437 46.8239C24.5221 46.9445 24.4295 47.0795 24.2487 47.1111C23.9443 47.5691 23.4636 47.8414 23.0785 48.2142C22.9117 48.3741 22.7368 48.5228 22.508 48.6077C22.3845 48.6539 22.2986 48.7946 22.1788 48.8641C21.7493 49.1135 21.3269 49.3864 20.8713 49.5792C20.4374 49.7646 20.0096 49.9894 19.5237 50.0332C19.3919 50.0452 19.2524 50.0673 19.1321 50.119C18.8713 50.2317 18.6086 50.2699 18.326 50.2395C18.233 50.2295 18.0859 50.3094 18.048 50.2696C17.9245 50.1389 17.8014 50.3054 17.7747 50.2823C17.5297 50.0689 17.2726 50.3056 17.0295 50.2408C16.8385 50.1903 16.6443 50.1095 16.453 50.1138C16.251 50.1192 16.0879 50.0229 15.93 49.9535C15.7757 49.8843 15.5595 49.9152 15.4726 49.7924C15.3453 49.6154 15.1496 49.6814 15.0214 49.5928C14.6975 49.3685 14.368 49.1492 14.1677 48.7761C14.0487 48.5556 13.9275 48.2906 13.6061 48.2576C13.5499 48.2519 13.4517 48.1389 13.4618 48.0954C13.5058 47.8968 13.3831 47.7538 13.2596 47.6992C13.0384 47.6006 13.244 47.2648 12.9614 47.2344C12.8956 47.0618 12.902 46.8694 12.8568 46.7071C12.7972 46.496 12.8709 46.2518 12.6774 46.0596C12.5715 45.9549 12.6754 45.7341 12.5691 45.5851C12.4918 45.4771 12.7241 45.4173 12.6214 45.2669C12.5717 45.1944 12.6462 45.0387 12.6615 44.9213C12.6656 44.888 12.6698 44.8529 12.6634 44.8188C12.6319 44.6362 12.648 44.4817 12.7318 44.2948C12.8262 44.0838 12.7939 43.8127 12.8983 43.583C12.9758 43.4116 13.0327 43.2299 13.1022 43.0455C12.9223 42.9869 12.7333 42.9843 12.541 43.0788C12.4476 43.1235 12.3321 43.2587 12.2316 43.0766C12.0965 43.2387 11.8581 43.031 11.7286 43.213C11.6342 43.1215 11.5727 43.3683 11.4512 43.2342C11.4168 43.1947 11.2676 43.255 11.1706 43.2765C11.0683 43.2977 10.9676 43.3472 10.8667 43.3472C10.515 43.3439 10.1912 43.5741 9.82862 43.4727C9.81302 43.4681 9.78863 43.4629 9.7811 43.4694C9.5134 43.7567 9.10562 43.5937 8.80319 43.7707C8.52475 43.6805 8.32058 43.9191 8.05964 43.9327C7.80926 43.947 7.55732 44.009 7.31368 44.0786C6.81196 44.2222 6.32742 44.4235 5.7951 44.4482C5.71704 44.4516 5.6463 44.5528 5.56529 44.5984C5.50814 44.6315 5.48111 44.4616 5.3978 44.5654C5.24084 44.7614 4.99169 44.7581 4.78211 44.8213C4.52554 44.8989 4.27203 45.0085 4.02221 45.0653C3.76888 45.1219 3.53355 45.1991 3.30481 45.3087C3.10357 45.4043 2.85324 45.3673 2.68044 45.5622C2.63061 45.6171 2.39117 45.5508 2.37991 45.5854C2.33925 45.7117 2.23655 45.7133 2.15492 45.7677C1.94709 45.9071 1.72676 45.9217 1.47123 45.8579C1.31499 45.3606 1.15609 44.8507 0.995682 44.3372C1.24493 44.2379 1.51002 44.1397 1.76741 44.0251C2.49941 43.6995 3.29449 43.534 4.00856 43.1613C4.827 43.0664 5.56997 42.685 6.37663 42.531C6.61679 42.4859 6.86607 42.4113 7.1048 42.336C7.35257 42.2579 7.61189 42.1663 7.89509 42.1632C8.13581 42.1605 8.37185 41.9719 8.61495 41.9606C9.20609 41.9294 9.77175 41.7567 10.3466 41.6554C11.0806 41.5281 11.8352 41.4871 12.5503 41.2506C12.8325 41.3376 13.1009 41.1919 13.381 41.2079C13.529 41.2165 13.6804 41.1758 13.8274 41.1471C14.2345 41.0677 14.6554 41.1184 15.0543 41.0295C15.3057 40.9746 15.5641 41.0475 15.7864 40.9799C16.0285 40.9067 16.2495 40.9592 16.4786 40.9452C16.6438 40.9355 16.8075 40.8957 16.9743 40.8879C17.1269 40.8809 17.2857 40.9362 17.4212 40.8201C17.4306 40.8119 17.4529 40.8223 17.4687 40.8234C17.9057 40.8221 18.3422 40.8261 18.7798 40.8161C19.0083 40.8108 19.2374 40.772 19.4672 40.7739C19.7077 40.7748 19.96 40.8597 20.1845 40.8099C20.7111 40.6911 21.2206 40.8399 21.7376 40.8319C21.936 40.8281 22.1412 40.9291 22.3319 40.7815C22.36 40.7587 22.4281 40.797 22.4731 40.786C22.6605 40.7355 22.7946 40.9677 23.0279 40.8443C23.184 40.7615 23.4339 40.855 23.6416 40.8695L24.937 40.9601C25.1447 40.9746 25.3602 41.0286 25.5574 40.9911C25.7081 40.961 25.7659 41.1454 25.927 41.0682C26.0421 41.0144 26.211 41.028 26.3429 41.0637C26.9572 41.2322 27.6034 41.1731 28.2131 41.3059C28.6957 41.4104 29.1773 41.4282 29.6583 41.4795C29.9059 41.5056 30.1169 41.6495 30.3794 41.6396C30.6046 41.6306 30.8526 41.6001 31.0547 41.7699C31.0848 41.795 31.1477 41.78 31.1953 41.7833C31.3238 41.7923 31.4531 41.7889 31.5787 41.8136C31.7096 41.8387 31.8342 41.904 31.9649 41.9308C32.0905 41.9555 32.2204 41.9452 32.3482 41.9629C32.4586 41.9777 32.5569 42.0394 32.6792 42.0356C32.7979 42.0333 32.9364 42.0501 33.0347 42.1118C33.2347 42.2354 33.4519 42.2152 33.6635 42.2495C33.8577 42.2807 34.0646 42.3058 34.2372 42.3922C34.4423 42.4949 34.6789 42.4496 34.8602 42.5383C35.0723 42.6416 35.2819 42.6279 35.4914 42.6673C35.6381 42.6935 35.7805 42.7565 35.9205 42.8035C36.254 42.9152 36.5942 42.9832 36.9358 43.0549C37.1136 43.0921 37.3438 43.0887 37.4528 43.1989C37.6311 43.3812 37.8709 43.2388 38.0575 43.4039C38.1973 43.5287 38.4624 43.5065 38.669 43.5616C38.9434 43.6339 39.186 43.8065 39.4759 43.8338C39.6027 44.0196 39.8315 43.8587 39.9952 43.9957C40.1239 44.1038 40.3301 44.1129 40.4953 44.1793C40.6466 44.2411 40.7834 44.3338 40.937 44.3888C41.1079 44.4485 41.2961 44.4634 41.463 44.5299C41.9607 44.7221 42.4535 44.9334 42.949 45.1326C43.2654 45.2608 43.6001 45.3567 43.9003 45.5139C44.2058 45.6732 44.5427 45.7622 44.8352 45.9295C45.2638 46.1735 45.7427 46.306 46.1621 46.5564C46.7615 46.9131 47.4141 47.1657 48.0171 47.5209C48.3212 47.6996 48.6206 47.8956 48.946 48.0475C49.2543 48.1911 49.5316 48.3997 49.8213 48.5809C50.633 49.0887 51.4825 49.5354 52.2054 50.1749C52.3604 50.3113 52.5456 50.4198 52.728 50.5175C52.9377 50.6294 53.1096 50.7758 53.2608 50.9916L53.2643 50.9918ZM28.9197 43.1894C28.9411 43.2634 28.9409 43.3165 28.967 43.3484C29.1719 43.5802 29.3195 43.847 29.4613 44.1204C29.5251 44.2452 29.6532 44.3355 29.7388 44.4511C29.8196 44.5611 29.8573 44.73 29.9611 44.7886C30.0991 44.8637 30.0066 45.0482 30.1916 45.1089C30.3179 45.1496 30.4184 45.3564 30.4695 45.5104C30.5281 45.6842 30.7078 45.7198 30.7825 45.8648C30.8948 46.0795 30.9847 46.337 31.1623 46.4785C31.5225 46.7654 31.6657 47.2477 32.0909 47.4649C32.2074 47.7207 32.4294 47.8847 32.6098 48.0866C32.9756 48.496 33.3896 48.8486 33.7959 49.2095C34.2221 49.5895 34.6753 49.9378 35.1878 50.1965C35.3329 50.2703 35.4923 50.3186 35.6315 50.4008C36.4048 50.8511 36.4103 50.8479 37.1964 50.887C37.3586 50.8948 37.5489 50.8285 37.6913 50.9923C37.711 51.0149 37.7967 50.9785 37.852 50.9717C37.9428 50.9622 38.0425 50.9284 38.1221 50.9535C38.212 50.9828 38.2561 50.7824 38.3502 50.9287C38.3981 51.0028 38.4856 50.8126 38.5573 50.9521C38.5884 51.0126 38.7003 51.031 38.7754 51.0699C38.8846 50.975 38.9843 50.8652 39.1045 50.7905C39.2024 50.7301 39.3258 50.7104 39.4381 50.6723C39.4943 50.6533 39.5618 50.6491 39.605 50.6132C39.8039 50.4503 40.0505 50.3119 40.173 50.1029C40.3057 49.8752 40.4459 49.6409 40.5495 49.3988C40.6444 49.179 40.621 48.9068 40.716 48.687C40.8193 48.4484 40.7605 48.2268 40.7749 47.9961C40.804 47.5542 40.6913 47.1431 40.6431 46.7188C40.6282 46.578 40.5586 46.3856 40.453 46.327C40.2488 46.2119 40.1495 46.0139 40.0241 45.9096C39.7469 45.8266 39.4963 45.7932 39.2886 45.6778C38.7813 45.3965 38.2103 45.3159 37.6704 45.1455C37.3122 45.032 36.9367 44.9385 36.5821 44.8253C36.2101 44.7073 35.8264 44.6292 35.4543 44.513C35.2864 44.4606 35.1197 44.3658 34.9309 44.3597C34.7315 44.3528 34.5401 44.2828 34.3501 44.243C33.9614 44.161 33.5766 44.0739 33.1995 43.9538C32.7601 43.8135 32.2989 43.7812 31.8494 43.6843C31.412 43.5901 30.9717 43.4373 30.5076 43.4738C30.4453 43.4783 30.3579 43.4898 30.3214 43.4554C30.1185 43.2715 29.8567 43.3982 29.647 43.311C29.4269 43.2213 29.2113 43.1674 28.9195 43.1929L28.9197 43.1894ZM25.5077 42.8907C25.343 42.8173 25.2236 42.6285 25.0194 42.7911C24.9894 42.8155 24.8869 42.7394 24.8136 42.7254C24.7281 42.7088 24.64 42.7027 24.555 42.7056C24.4983 42.7069 24.4026 42.7603 24.393 42.7455C24.2906 42.5916 24.1329 42.646 23.9992 42.6349C23.8814 42.6249 23.7695 42.6064 23.6359 42.6714C23.4821 42.7455 23.2855 42.6999 23.1268 42.5915C22.4938 42.7666 21.8511 42.421 21.2175 42.6296C21.1437 42.4458 21.0452 42.6405 20.9606 42.6116C20.8516 42.5757 20.6992 42.4802 20.638 42.5201C20.4766 42.6273 20.3193 42.5756 20.18 42.5447C20.0442 42.5139 19.9528 42.7587 19.8035 42.5661C19.6689 42.3922 19.5261 42.6121 19.3768 42.5982C19.0042 42.565 18.6346 42.5639 18.2574 42.5959C17.8429 42.6306 17.418 42.7123 16.9961 42.6245C16.9438 42.6137 16.8808 42.6553 16.8221 42.66C16.5801 42.6803 16.3508 42.7986 16.1031 42.7495C15.9409 42.7169 15.3607 42.717 15.3205 42.8115C15.2445 42.9884 15.0761 43.019 14.9694 43.1283C14.8608 43.2392 14.7821 43.4035 14.7483 43.5585C14.722 43.6823 14.6759 43.7852 14.6222 43.8946C14.5192 44.1032 14.4891 44.331 14.4692 44.5648C14.4498 44.7916 14.3672 45.0122 14.339 45.2384C14.327 45.3349 14.4373 45.477 14.398 45.5326C14.2878 45.6929 14.2735 45.821 14.3694 45.9922C14.412 46.066 14.3705 46.1798 14.2677 46.2327C14.3475 46.3055 14.3384 46.3597 14.2653 46.4448C14.2422 46.4715 14.3264 46.6578 14.3771 46.6666C14.5172 46.687 14.474 46.799 14.518 46.8516C14.6897 47.0528 14.5783 47.4058 14.915 47.5231C15.0151 47.5584 15.0491 47.7553 15.1375 47.857C15.2307 47.9661 15.3926 47.8766 15.5233 47.9795C15.7682 48.17 16.0158 48.3978 16.3737 48.3644C16.4146 48.3602 16.4626 48.383 16.5038 48.4C16.7851 48.5258 17.091 48.5525 17.3852 48.6191C17.8467 48.7221 18.2918 48.5534 18.7381 48.4696C19.0874 48.4056 19.4655 48.3613 19.7657 48.1913C20.2517 47.9175 20.8352 47.8186 21.2332 47.3883C21.4482 47.3486 21.567 47.1676 21.7291 47.0498C21.8762 46.9434 22.0364 46.8538 22.1785 46.7435C22.3431 46.6152 22.5013 46.4777 22.6511 46.3343C22.8766 46.1184 23.0939 45.8948 23.3129 45.6714C23.4977 45.4827 23.6874 45.2979 23.8621 45.1014C24.0445 44.8966 24.205 44.6744 24.3873 44.4713C24.8173 43.9867 25.1918 43.4629 25.5077 42.8907Z" fill="black"/>
</g>
</g>
<path d="M42.955 3.28293L18.1384 1.54758C10.362 1.00381 3.61726 6.86696 3.07348 14.6433L1.33814 39.4599C0.794363 47.2363 6.65752 53.981 14.4339 54.5248L39.2505 56.2602C47.0268 56.8039 53.7716 50.9408 54.3154 43.1644L56.0507 18.3478C56.5945 10.5715 50.7313 3.8267 42.955 3.28293Z" stroke="black" stroke-width="1.76434"/>
</g>
<defs>
<clipPath id="clip0_1_34">
<rect width="57" height="57" fill="white" transform="translate(0.282806 0.492676)"/>
</clipPath>
</defs>
</svg>
